<?xml version="1.0" encoding="utf-8"?>
<!-- Generator: Adobe Illustrator 22.1.0, SVG Export Plug-In . SVG Version: 6.00 Build 0)  -->
<svg version="1.2" baseProfile="tiny" id="Layer_1" xmlns="http://www.w3.org/2000/svg" xmlns:xlink="http://www.w3.org/1999/xlink"
	 x="0px" y="0px" viewBox="0 0 822 680.3" xml:space="preserve">
<g>
	<image width="632" height="59" xlink:href="9315E153.png"  transform="matrix(1 0 0 1 22 616)">
	</image>
	<polygon fill="#F1E6B4" points="162.5,214 196.7,186.9 234.5,177.2 	"/>
	<polygon fill="#EDDAA1" points="312.7,173.5 234.5,177.2 273.6,186.5 	"/>
	<polygon fill="#A67F52" points="162.5,214 139.8,261.9 165.4,242.5 	"/>
	<path fill="#A67F52" d="M169.9,382.5"/>
	<polygon fill="#7A6046" points="131.1,311.6 160.2,335.4 172.6,388.9 	"/>
	<polygon fill="#CBB78F" points="194,416.3 211,378.9 172.6,388.9 	"/>
	<polygon fill="#6D4631" points="131.1,311.6 165.2,302.9 160.2,335.4 	"/>
	<polygon fill="#9F8C69" points="172.6,388.9 189.3,344.4 211,378.9 	"/>
	<polygon fill="#CCBA87" points="160.2,335.4 189.3,344.4 172.6,388.9 	"/>
	<polygon fill="#DBBD8B" points="165.2,302.9 201.7,301.3 160.2,335.4 	"/>
	<polygon fill="#B49F7F" points="211,378.9 234.5,339.7 189.3,344.4 	"/>
	<polygon fill="#8F8163" points="236.1,413.3 234.5,339.7 211,378.9 	"/>
	<polygon fill="#4A3F3C" points="270.9,372.5 236.1,413.3 234.5,339.7 	"/>
	<polygon fill="#635C54" points="238.1,292.6 189.3,344.4 234.5,339.7 	"/>
	<polygon fill="#886B52" points="296,324.7 270.9,372.5 234.5,339.7 	"/>
	<polygon fill="#664639" points="299,369.5 296,324.7 270.9,372.5 	"/>
	<polygon fill="#3C2C28" points="269.2,420 299,369.5 270.9,372.5 	"/>
	<polygon fill="#605245" points="248.5,428.4 270.9,372.5 269.2,420 	"/>
	<polygon fill="#80694C" points="236.1,413.3 248.5,428.4 270.9,372.5 	"/>
	<polygon fill="#795F45" points="248.5,460.8 248.5,428.4 269.2,420 	"/>
	<polygon fill="#937351" points="223.6,443.4 248.5,428.4 236.1,413.3 	"/>
	<polygon fill="#4D423A" points="194,416.3 236.1,413.3 211,378.9 	"/>
	<polygon fill="#5A392D" points="201.7,431.7 236.1,413.3 194,416.3 	"/>
	<polygon fill="#8C7A55" points="223.6,443.4 211,471.2 180.9,488.9 	"/>
	<polygon fill="#34241E" points="201.7,431.7 180.9,488.9 223.6,443.4 	"/>
	<polygon fill="#5D4636" points="236.1,413.3 223.6,443.4 201.7,431.7 	"/>
	<polygon fill="#2A282E" points="211,471.2 248.5,428.4 223.6,443.4 	"/>
	<polygon fill="#18151C" points="248.5,460.8 248.5,428.4 211,471.2 	"/>
	<polygon fill="#272424" points="180.9,488.9 174.8,502.9 183.3,525.3 	"/>
	<polygon fill="#1D1D27" points="211,471.2 229.8,496.9 248.5,460.8 	"/>
	<polygon fill="#16141D" points="202.3,507.1 211,471.2 229.8,496.9 	"/>
	<polygon fill="#1F1E21" points="180.9,488.9 202.3,507.1 211,471.2 	"/>
	<polygon fill="#11101C" points="183.3,525.3 202.3,507.1 180.9,488.9 	"/>
	<polygon fill="#201E26" points="229.8,496.9 223.6,528.7 202.3,507.1 	"/>
	<polygon fill="#13121F" points="198.3,563.2 202.3,507.1 183.3,525.3 	"/>
	<polygon fill="#211F28" points="223.6,528.7 216,539.4 229.8,555.1 	"/>
	<polygon fill="#13121C" points="202.3,507.1 216,539.4 223.6,528.7 	"/>
	<polygon fill="#1D1C23" points="198.3,563.2 216,539.4 202.3,507.1 	"/>
	<polygon fill="#272B34" points="229.8,555.1 241.5,587.9 223.6,576.2 	"/>
	<polygon fill="#2C2D36" points="216,539.4 223.6,576.2 229.8,555.1 	"/>
	<polygon fill="#191721" points="198.3,563.2 216,539.4 223.6,576.2 	"/>
	<polygon fill="#1C1C26" points="218.7,621.9 223.6,576.2 198.3,563.2 	"/>
	<polygon fill="#23232E" points="236,612.6 223.6,576.2 218.2,626.6 	"/>
	<polygon fill="#21272C" points="241.5,587.9 236,612.6 223.6,576.2 	"/>
	<polygon fill="#313138" points="260.2,632 236,612.6 241.5,587.9 	"/>
	<polygon fill="#26242F" points="269.2,645.1 260.2,632 255.9,651.8 	"/>
	<polygon fill="#1A1C27" points="241.5,657.8 255.9,651.8 238.8,645.4 	"/>
	<polygon fill="#292937" points="216,626.4 232.5,628.4 229.8,637.7 	"/>
	<polygon fill="#393B34" points="224.3,641.9 229.8,637.7 216,626.4 	"/>
	<polygon fill="#1B1D26" points="238.8,645.4 229.8,637.7 238.8,632 	"/>
	<polygon fill="#26242F" points="255.9,651.8 238.8,632 238.8,645.4 	"/>
	<polygon fill="#22222C" points="260.2,632 238.8,632 255.9,651.8 	"/>
	<polygon fill="#302E36" points="236,612.6 238.8,632 260.2,632 	"/>
	<polygon fill="#292930" points="236,612.6 232.5,628.4 218.2,626.6 	"/>
	<polygon fill="#1D1B26" points="238.8,632 229.8,637.7 232.5,628.4 	"/>
	<polygon fill="#1C1F28" points="236,612.6 238.8,632 232.5,628.4 	"/>
	<polygon fill="#1F2228" points="246.7,655.6 245.7,661.9 258.6,661.1 	"/>
	<polygon fill="#2B2639" points="269.2,645.1 258.6,661.1 246.7,655.6 	"/>
	<polygon fill="#20222C" points="277.3,653.5 269.2,645.1 258.6,661.1 	"/>
	<polygon fill="#20222C" points="283.7,660.7 277.3,653.5 258.6,661.1 	"/>
	<polygon fill="#886F53" points="296,324.7 238.1,292.6 234.5,339.7 	"/>
	<polygon fill="#50342D" points="165.2,302.9 174.8,266.8 131.1,311.6 	"/>
	<polygon fill="#7B5942" points="131.1,311.6 139.8,261.9 165.4,242.5 	"/>
	<polygon fill="#422A28" points="174.8,266.8 165.4,242.5 131.1,311.6 	"/>
	<polygon fill="#826B58" points="201.7,301.3 174.8,266.8 165.2,302.9 	"/>
	<polygon fill="#80745E" points="238.1,292.6 201.7,301.3 189.3,344.4 	"/>
	<polygon fill="#7D6F5A" points="216.6,269.1 201.7,301.3 238.1,292.6 	"/>
	<polygon fill="#988A69" points="174.8,266.8 216.6,269.1 201.7,301.3 	"/>
	<polygon fill="#C2A77D" points="162.5,214 201.7,217.9 165.4,242.5 	"/>
	<polygon fill="#896F55" points="204.3,245.5 165.4,242.5 201.7,217.9 	"/>
	<polygon fill="#836C5D" points="174.8,266.8 204.3,245.5 165.4,242.5 	"/>
	<polygon fill="#71614B" points="216.6,269.1 204.3,245.5 174.8,266.8 	"/>
	<polygon fill="#D4C393" points="201.7,217.9 228.1,193.6 162.5,214 	"/>
	<polygon fill="#D6BC8E" points="234.5,177.2 228.1,193.6 162.5,214 	"/>
	<polygon fill="#CDB886" points="273.6,186.5 228.1,193.6 234.5,177.2 	"/>
	<polygon fill="#C9A581" points="252.7,206.6 201.7,217.9 228.1,193.6 	"/>
	<polygon fill="#CDB384" points="244.7,223.4 204.3,245.5 201.7,217.9 	"/>
	<polygon fill="#BC9F76" points="273.6,186.5 252.7,206.6 228.1,193.6 	"/>
	<polygon fill="#B1966D" points="216.6,269.1 239.4,245.5 204.3,245.5 	"/>
	<polygon fill="#9B7F63" points="244.7,223.4 239.4,245.5 204.3,245.5 	"/>
	<polygon fill="#624B42" points="296,324.7 285,284 238.1,292.6 	"/>
	<polygon fill="#6D6253" points="239.4,245.5 238.1,292.6 216.6,269.1 	"/>
	<polygon fill="#A98E64" points="252.7,206.6 244.7,223.4 201.7,217.9 	"/>
	<polygon fill="#D5B687" points="273.6,186.5 304.9,201.3 252.7,206.6 	"/>
	<polygon fill="#755D4F" points="285,284 239.4,245.5 238.1,292.6 	"/>
	<polygon fill="#3A2F2B" points="299,369.5 320.2,368.4 296,324.7 	"/>
	<polygon fill="#1C171E" points="276.5,407.6 330.2,421.3 299,369.5 	"/>
	<polygon fill="#0B0910" points="330.2,421.3 299,369.5 348,410.3 	"/>
	<polygon fill="#1A171B" points="370.6,431.7 330.2,421.3 348,410.3 	"/>
	<polygon fill="#100C14" points="392.1,421 370.6,431.7 409.5,432.9 	"/>
	<polygon fill="#211B1D" points="348,410.3 392.1,421 370.6,431.7 	"/>
	<polygon fill="#533F33" points="320.2,368.4 348,410.3 392.1,421 	"/>
	<polygon fill="#2D211A" points="299,369.5 320.2,368.4 348,410.3 	"/>
	<polygon fill="#452F2B" points="392.1,421 374.8,388.9 320.2,368.4 	"/>
	<polygon fill="#634B3B" points="331.4,354.6 320.2,368.4 374.8,388.9 	"/>
	<polygon fill="#060612" points="409.5,432.9 460.4,434.4 433,410.3 	"/>
	<polygon fill="#060614" points="529.9,432.9 529.9,415.3 495,434.4 	"/>
	<polygon fill="#1B181C" points="460.4,434.4 495,434.4 481.2,420 	"/>
	<polygon fill="#21141F" points="433,410.3 392.1,421 409.5,432.9 	"/>
	<polygon fill="#2B2023" points="374.8,388.9 433,410.3 392.1,421 	"/>
	<polygon fill="#423932" points="331.4,354.6 387.1,352.6 374.8,388.9 	"/>
	<polygon fill="#3F3436" points="296,324.7 320.2,368.4 331.4,354.6 	"/>
	<polygon fill="#3B2A2E" points="338,324.7 331.4,354.6 387.1,352.6 	"/>
	<polygon fill="#644C43" points="296,324.7 338,324.7 331.4,354.6 	"/>
	<polygon fill="#372C2D" points="433,410.3 387.1,352.6 374.8,388.9 	"/>
	<polygon fill="#21151C" points="465.6,386.7 433,410.3 387.1,352.6 	"/>
	<polygon fill="#1F181F" points="460.4,434.4 481.2,420 433,410.3 	"/>
	<polygon fill="#17161D" points="465.6,386.7 481.2,420 433,410.3 	"/>
	<polygon fill="#1C191F" points="529.9,415.3 481.2,420 495,434.4 	"/>
	<polygon fill="#0E0B17" points="511,399.3 529.9,415.3 481.2,420 	"/>
	<polygon fill="#1C171E" points="465.6,386.7 511,399.3 481.2,420 	"/>
	<polygon fill="#2A1F22" points="505.5,369.5 511,399.3 465.6,386.7 	"/>
	<polygon fill="#302627" points="462.6,352.6 465.6,386.7 387.1,352.6 	"/>
	<polygon fill="#3F332D" points="505.5,369.5 462.6,352.6 465.6,386.7 	"/>
	<polygon fill="#725942" points="296,324.7 329.4,285.2 338,324.7 	"/>
	<polygon fill="#615240" points="285,284 329.4,285.2 296,324.7 	"/>
	<polygon fill="#57463E" points="338,324.7 373.6,310 387.1,352.6 	"/>
	<polygon fill="#896245" points="329.4,285.2 373.6,310 338,324.7 	"/>
	<polygon fill="#9A7950" points="399.7,277 373.6,310 329.4,285.2 	"/>
	<polygon fill="#4A362E" points="387.1,352.6 419.5,319.7 373.6,310 	"/>
	<polygon fill="#674E46" points="239.4,245.5 287.5,242.5 285,284 	"/>
	<polygon fill="#34282A" points="462.6,352.6 419.5,319.7 387.1,352.6 	"/>
	<polygon fill="#2D2021" points="507.8,331.3 505.5,369.5 462.6,352.6 	"/>
	<polygon fill="#694E3D" points="517.1,296.4 507.8,331.3 476.2,310 	"/>
	<polygon fill="#49342E" points="462.6,352.6 476.2,310 507.8,331.3 	"/>
	<polygon fill="#4C3938" points="419.5,319.7 476.2,310 462.6,352.6 	"/>
	<polygon fill="#614740" points="399.7,277 419.5,319.7 373.6,310 	"/>
	<polygon fill="#7F5F45" points="287.5,242.5 329.4,285.2 285,284 	"/>
	<polygon fill="#C6A778" points="244.7,223.4 287.5,242.5 252.7,206.6 	"/>
	<polygon fill="#8B6F5C" points="239.4,245.5 287.5,242.5 244.7,223.4 	"/>
	<polygon fill="#A5815C" points="304.9,201.3 287.5,242.5 252.7,206.6 	"/>
	<polygon fill="#C5A56D" points="312.7,173.5 304.9,201.3 273.6,186.5 	"/>
	<polygon fill="#E6D5A1" points="348.2,187.4 389.9,173.5 312.7,173.5 	"/>
	<polygon fill="#F3E4A7" points="421.7,187.4 444.7,175 389.9,173.5 	"/>
	<polygon fill="#E0CA92" points="348.2,187.4 304.9,201.3 312.7,173.5 	"/>
	<polygon fill="#DBC585" points="389.9,198.6 389.9,173.5 348.2,187.4 	"/>
	<polygon fill="#836046" points="338,230.7 304.9,201.3 287.5,242.5 	"/>
	<polygon fill="#C59F72" points="348.2,187.4 338,230.7 304.9,201.3 	"/>
	<polygon fill="#A68051" points="287.5,242.5 329.4,285.2 338,230.7 	"/>
	<polygon fill="#D1AC7A" points="348.2,187.4 378.6,217.9 338,230.7 	"/>
	<polygon fill="#917151" points="329.4,285.2 378.6,217.9 338,230.7 	"/>
	<polygon fill="#382221" points="419.5,319.7 436.3,282.4 476.2,310 	"/>
	<polygon fill="#523532" points="517.1,296.4 477.7,269 476.2,310 	"/>
	<polygon fill="#583D37" points="518.6,257.9 517.1,296.4 477.7,269 	"/>
	<polygon fill="#5E3F2F" points="436.3,282.4 477.7,269 476.2,310 	"/>
	<polygon fill="#704E43" points="399.7,277 436.3,282.4 419.5,319.7 	"/>
	<polygon fill="#83614C" points="378.6,217.9 373.6,254.6 329.4,285.2 	"/>
	<polygon fill="#8A6547" points="399.7,277 373.6,254.6 329.4,285.2 	"/>
	<polygon fill="#D0AD75" points="389.9,198.6 378.6,217.9 348.2,187.4 	"/>
	<polygon fill="#C4A171" points="421.7,187.4 389.9,198.6 389.9,173.5 	"/>
	<polygon fill="#BC9164" points="419.5,221.9 389.9,198.6 378.6,217.9 	"/>
	<polygon fill="#C6A267" points="373.6,254.6 419.5,221.9 378.6,217.9 	"/>
	<polygon fill="#987857" points="399.7,277 419.5,221.9 373.6,254.6 	"/>
	<polygon fill="#CBA771" points="421.7,187.4 419.5,221.9 389.9,198.6 	"/>
	<polygon fill="#604A3A" points="436.3,282.4 419.5,221.9 399.7,277 	"/>
	<polygon fill="#583630" points="460.1,240.7 436.3,282.4 477.7,269 	"/>
	<polygon fill="#7C533D" points="419.5,221.9 460.1,240.7 436.3,282.4 	"/>
	<polygon fill="#D3B67C" points="460.1,198.6 419.5,221.9 421.7,187.4 	"/>
	<polygon fill="#DAC590" points="444.7,175 460.1,198.6 421.7,187.4 	"/>
	<polygon fill="#CEA979" points="498.1,163 475.4,178.3 444.7,175 	"/>
	<polygon fill="#D9C492" points="460.1,198.6 475.4,178.3 444.7,175 	"/>
	<polygon fill="#A6764C" points="460.1,240.7 460.1,198.6 419.5,221.9 	"/>
	<polygon fill="#BD9666" points="475.4,178.3 524.1,173.5 498.1,163 	"/>
	<polygon fill="#BB9B75" points="538.1,152.7 498.1,163 524.1,173.5 	"/>
	<polygon fill="#C9A170" points="582.8,166 538.1,152.7 524.1,173.5 	"/>
	<polygon fill="#DDC691" points="588.8,149.9 582.8,166 538.1,152.7 	"/>
	<polygon fill="#C1A06E" points="460.1,198.6 524.1,173.5 475.4,178.3 	"/>
	<polygon fill="#BD9572" points="499.8,211.9 460.1,240.7 460.1,198.6 	"/>
	<polygon fill="#644637" points="518.6,257.9 460.1,240.7 477.7,269 	"/>
	<polygon fill="#5C412A" points="499.8,211.9 518.6,257.9 460.1,240.7 	"/>
	<polygon fill="#B07D5C" points="524.1,173.5 499.8,211.9 460.1,198.6 	"/>
	<polygon fill="#E0CB8F" points="582.8,166 578,191.3 524.1,173.5 	"/>
	<polygon fill="#C5A075" points="499.8,211.9 538.1,207.9 524.1,173.5 	"/>
	<polygon fill="#C2A47D" points="578,191.3 538.1,207.9 524.1,173.5 	"/>
	<polygon fill="#76583F" points="518.6,257.9 538.1,207.9 499.8,211.9 	"/>
	<polygon fill="#695949" points="578,191.3 574,230.7 538.1,207.9 	"/>
	<polygon fill="#62422C" points="518.6,257.9 574,230.7 538.1,207.9 	"/>
	<polygon fill="#7B6C53" points="511,399.3 543.1,377.2 505.5,369.5 	"/>
	<polygon fill="#826B5A" points="543.1,377.2 507.8,331.3 505.5,369.5 	"/>
	<polygon fill="#614638" points="517.1,296.4 543.1,325.8 507.8,331.3 	"/>
	<polygon fill="#79604B" points="543.1,377.2 529.9,415.3 511,399.3 	"/>
	<polygon fill="#73533B" points="529.9,432.9 533.9,447.9 552.2,420 	"/>
	<polygon fill="#5C4035" points="529.9,415.3 552.2,420 529.9,432.9 	"/>
	<polygon fill="#735C47" points="543.1,377.2 552.2,420 529.9,415.3 	"/>
	<polygon fill="#665543" points="583.3,418.8 583.3,438.1 552.2,420 	"/>
	<polygon fill="#443026" points="571.7,390.7 552.2,420 583.3,418.8 	"/>
	<polygon fill="#503D34" points="543.1,377.2 571.7,390.7 552.2,420 	"/>
	<polygon fill="#6E4B39" points="507.8,331.3 543.1,325.8 543.1,377.2 	"/>
	<polygon fill="#313139" points="576.8,356.9 543.1,377.2 571.7,390.7 	"/>
	<polygon fill="#40312A" points="543.1,325.8 576.8,356.9 543.1,377.2 	"/>
	<polygon fill="#5E483D" points="517.1,296.4 547.4,290.6 543.1,325.8 	"/>
	<polygon fill="#715145" points="518.6,257.9 547.4,290.6 517.1,296.4 	"/>
	<polygon fill="#936B48" points="574,230.7 547.4,290.6 518.6,257.9 	"/>
	<polygon fill="#7F5C49" points="575.8,313.8 543.1,325.8 547.4,290.6 	"/>
	<polygon fill="#5A463C" points="584.5,275.3 575.8,313.8 547.4,290.6 	"/>
	<polygon fill="#45312D" points="574,230.7 584.5,275.3 547.4,290.6 	"/>
	<polygon fill="#CAAD82" points="578,191.3 587.5,190.7 574,230.7 	"/>
	<polygon fill="#E1CA90" points="582.8,166 587.5,190.7 578,191.3 	"/>
	<polygon fill="#E2C58A" points="588.8,149.9 587.5,190.7 582.8,166 	"/>
	<polygon fill="#99714C" points="600.8,227.7 574,230.7 587.5,190.7 	"/>
	<polygon fill="#53413E" points="584.5,275.3 600.8,227.7 574,230.7 	"/>
	<polygon fill="#463131" points="609.4,305.9 575.8,313.8 584.5,275.3 	"/>
	<polygon fill="#271720" points="576.8,356.9 575.8,313.8 543.1,325.8 	"/>
	<polygon fill="#302D30" points="599.1,393.7 583.3,418.8 571.7,390.7 	"/>
	<polygon fill="#0F131A" points="576.8,356.9 599.1,393.7 571.7,390.7 	"/>
	<polygon fill="#241A1D" points="575.8,313.8 607.1,340.3 609.4,305.9 	"/>
	<polygon fill="#372728" points="576.8,356.9 607.1,340.3 575.8,313.8 	"/>
	<polygon fill="#282126" points="599.1,393.7 610.9,363.9 576.8,356.9 	"/>
	<polygon fill="#554038" points="607.1,340.3 610.9,363.9 576.8,356.9 	"/>
	<polygon fill="#060613" points="583.3,418.8 620.2,416.6 583.3,438.1 	"/>
	<polygon fill="#12101A" points="641.5,405.4 620.2,416.6 583.3,418.8 	"/>
	<polygon fill="#0E0613" points="599.1,393.7 641.5,405.4 583.3,418.8 	"/>
	<polygon fill="#1A171E" points="643.5,378.4 641.5,405.4 599.1,393.7 	"/>
	<polygon fill="#342E2F" points="610.9,363.9 643.5,378.4 599.1,393.7 	"/>
	<polygon fill="#442924" points="668.8,378.8 641.5,405.4 643.5,378.4 	"/>
	<polygon fill="#463329" points="685.6,358.1 668.8,378.8 662.3,356.9 	"/>
	<polygon fill="#4E392D" points="643.5,378.4 662.3,356.9 668.8,378.8 	"/>
	<polygon fill="#443438" points="634,349.1 643.5,378.4 662.3,356.9 	"/>
	<polygon fill="#462D2D" points="610.9,363.9 634,349.1 643.5,378.4 	"/>
	<polygon fill="#43322C" points="607.1,340.3 634,349.1 610.9,363.9 	"/>
	<polygon fill="#2D2224" points="632.7,319.7 607.1,340.3 609.4,305.9 	"/>
	<polygon fill="#403239" points="634,349.1 632.7,319.7 607.1,340.3 	"/>
	<polygon fill="#523330" points="686.6,331.3 685.6,358.1 662.3,356.9 	"/>
	<polygon fill="#926B49" points="689.1,296.4 686.6,331.3 662.3,356.9 	"/>
	<polygon fill="#644A3B" points="634,349.1 656.2,323.1 662.3,356.9 	"/>
	<polygon fill="#48332D" points="632.7,319.7 641.5,308.2 656.2,323.1 	"/>
	<polygon fill="#66473A" points="634,349.1 656.2,323.1 632.7,319.7 	"/>
	<polygon fill="#7B5539" points="689.1,296.4 656.2,323.1 662.3,356.9 	"/>
	<polygon fill="#1E1B21" points="645.7,288.1 656.2,323.1 689.1,296.4 	"/>
	<polygon fill="#231821" points="641.5,308.2 632.7,319.7 609.4,305.9 	"/>
	<polygon fill="#342A2A" points="615.9,269 609.4,305.9 584.5,275.3 	"/>
	<polygon fill="#5A473B" points="600.8,227.7 615.9,269 584.5,275.3 	"/>
	<polygon fill="#302A2C" points="645.7,288.1 641.5,308.2 609.4,305.9 	"/>
	<polygon fill="#272322" points="615.9,269 645.7,288.1 609.4,305.9 	"/>
	<polygon fill="#272322" points="656.2,323.1 645.7,288.1 641.5,308.2 	"/>
	<polygon fill="#0E0614" points="689.1,296.4 668.8,261.9 645.7,288.1 	"/>
	<polygon fill="#34242B" points="696.9,279.1 689.1,296.4 668.8,261.9 	"/>
	<polygon fill="#302628" points="615.9,269 638,246.5 645.7,288.1 	"/>
	<polygon fill="#1A141A" points="668.8,261.9 638,246.5 645.7,288.1 	"/>
	<polygon fill="#2D2321" points="600.8,227.7 629.2,225.4 615.9,269 	"/>
	<polygon fill="#23191E" points="638,246.5 629.2,225.4 615.9,269 	"/>
	<polygon fill="#3A2824" points="612.9,202.4 600.8,227.7 629.2,225.4 	"/>
	<polygon fill="#4C382E" points="587.5,190.7 612.9,202.4 600.8,227.7 	"/>
	<polygon fill="#90634D" points="588.8,149.9 612.9,202.4 587.5,190.7 	"/>
	<polygon fill="#D8BD8A" points="602.1,118.6 588.8,149.9 602.1,141.6 	"/>
	<polygon fill="#CAB47F" points="605.9,168.5 602.1,141.6 588.8,149.9 	"/>
	<polygon fill="#866B4F" points="612.9,202.4 605.9,168.5 588.8,149.9 	"/>
	<polygon fill="#604734" points="629.2,225.4 638,215 612.9,202.4 	"/>
	<polygon fill="#140D15" points="638,246.5 662.3,223.9 668.8,261.9 	"/>
	<polygon fill="#281D20" points="686.6,244.2 668.8,261.9 662.3,223.9 	"/>
	<polygon fill="#382929" points="696.9,279.1 686.6,244.2 668.8,261.9 	"/>
	<polygon fill="#674A37" points="708.7,244.2 696.9,279.1 686.6,244.2 	"/>
	<polygon fill="#764E3B" points="708.7,211.9 708.7,244.2 686.6,244.2 	"/>
	<polygon fill="#563A32" points="681.4,216.1 686.6,244.2 708.7,211.9 	"/>
	<polygon fill="#2A2227" points="662.3,223.9 681.4,216.1 686.6,244.2 	"/>
	<polygon fill="#10101A" points="638,215 662.3,223.9 638,246.5 	"/>
	<polygon fill="#4E332E" points="629.2,225.4 638,246.5 638,215 	"/>
	<polygon fill="#0C0D16" points="662.3,223.9 662.3,200.1 638,215 	"/>
	<polygon fill="#4E332E" points="612.9,202.4 629.2,195.8 638,215 	"/>
	<polygon fill="#583F33" points="605.9,168.5 629.2,195.8 612.9,202.4 	"/>
	<polygon fill="#A17A51" points="602.1,141.6 612.9,155.1 605.9,168.5 	"/>
	<polygon fill="#CFB185" points="602.1,118.6 609.4,140.1 602.1,141.6 	"/>
	<polygon fill="#B29461" points="603.9,106 602.1,118.6 609.4,140.1 	"/>
	<polygon fill="#130613" points="638,215 629.2,195.8 662.3,200.1 	"/>
	<polygon fill="#251C1E" points="681.4,216.1 662.3,200.1 662.3,223.9 	"/>
	<polygon fill="#D0AB71" points="708.7,211.9 706.2,178.3 702.4,195.8 	"/>
	<polygon fill="#795442" points="681.4,216.1 702.4,195.8 708.7,211.9 	"/>
	<polygon fill="#2F211F" points="681.4,200.1 681.4,216.1 662.3,200.1 	"/>
	<polygon fill="#5F473A" points="702.4,195.8 681.4,216.1 681.4,200.1 	"/>
	<polygon fill="#9F7A54" points="609.4,140.1 612.9,155.1 602.1,141.6 	"/>
	<polygon fill="#906E55" points="662.3,73.4 678.1,87 668.8,106 	"/>
	<polygon fill="#A47A57" points="651.8,87.5 662.3,73.4 668.8,106 	"/>
	<polygon fill="#C5A175" points="668.8,125.8 682.9,115.1 668.8,106 	"/>
	<polygon fill="#CEA678" points="655.1,115.1 668.8,106 668.8,125.8 	"/>
	<polygon fill="#D8BC86" points="670.2,141.6 682.9,135.9 668.8,125.8 	"/>
	<polygon fill="#DFCA90" points="657.9,134.2 668.8,125.8 670.2,141.6 	"/>
	<polygon fill="#37373F" points="670.2,155.1 670.1,164.7 680.4,163 	"/>
	<polygon fill="#060606" points="685.9,153.9 680.4,163 670.2,155.1 	"/>
	<polygon fill="#282E33" points="670.2,155.1 677.1,149.9 685.9,153.9 	"/>
	<polygon fill="#373943" points="685.9,153.9 681.4,147.6 677.1,149.9 	"/>
	<polygon fill="#2E2C30" points="660.3,163.1 670.1,164.7 670.2,155.1 	"/>
	<polygon fill="#12101B" points="670.2,155.1 653.3,158 660.3,163.1 	"/>
	<polygon fill="#282E33" points="670.2,155.1 660.3,149.9 653.3,158 	"/>
	<polygon fill="#2C2331" points="651.8,150.8 653.3,158 660.3,149.9 	"/>
	<polygon fill="#8E745C" points="670.2,155.1 670.2,141.6 677.1,149.9 	"/>
	<polygon fill="#9E8169" points="660.3,149.9 670.2,141.6 670.2,155.1 	"/>
	<polygon fill="#D5BA8D" points="682.9,135.9 681.4,147.6 670.2,141.6 	"/>
	<polygon fill="#BA9964" points="657.9,134.2 660.3,149.9 670.2,141.6 	"/>
	<polygon fill="#735C46" points="660.3,163.1 650.1,170.3 653.3,158 	"/>
	<polygon fill="#9C8262" points="680.4,163 684.1,170.3 685.9,153.9 	"/>
	<polygon fill="#917356" points="638,167.2 645.7,174.9 653.3,158 	"/>
	<polygon fill="#AC8D6A" points="638,152.5 638,167.2 653.3,158 	"/>
	<polygon fill="#A68E67" points="684.1,170.3 691.9,163.1 685.9,153.9 	"/>
	<polygon fill="#3F3D45" points="684.1,170.3 690.6,170.3 680.4,176.9 	"/>
	<polygon fill="#3F3B3E" points="670.1,164.7 670.1,173.5 680.4,163 	"/>
	<polygon fill="#3B3D43" points="684.1,170.3 670.1,173.5 680.4,163 	"/>
	<polygon fill="#332E35" points="660.3,163.1 670.1,173.5 670.1,164.7 	"/>
	<polygon fill="#313138" points="650.1,170.3 670.1,173.5 660.3,163.1 	"/>
	<polygon fill="#3F3D45" points="684.1,170.3 680.4,176.9 670.1,173.5 	"/>
	<polygon fill="#323136" points="657.9,177.3 670.1,173.5 650.1,170.3 	"/>
	<polygon fill="#1B1A21" points="645.7,174.9 657.9,177.3 651.8,182 	"/>
	<polygon fill="#1C1B26" points="670.1,184 651.8,182 657.9,177.3 	"/>
	<polygon fill="#1C1C26" points="670.1,173.5 670.1,184 657.9,177.3 	"/>
	<polygon fill="#1F1D28" points="680.4,176.9 670.1,184 670.1,173.5 	"/>
	<polygon fill="#1F1D28" points="687.4,180.5 690.6,170.3 680.4,176.9 	"/>
	<polygon fill="#1C1B26" points="670.1,184 687.4,180.5 680.4,176.9 	"/>
	<polygon fill="#222024" points="651.8,182 670.1,192.7 670.1,184 	"/>
	<polygon fill="#27232A" points="687.4,180.5 670.1,192.7 670.1,184 	"/>
	<polygon fill="#958167" points="691.9,163.1 690.6,170.3 684.1,170.3 	"/>
	<polygon fill="#453831" points="633.6,176.5 645.7,174.9 638,167.2 	"/>
	<polygon fill="#96704D" points="612.9,155.1 630.9,166.4 629.3,153.9 	"/>
	<polygon fill="#69523A" points="633.6,176.5 630.9,166.4 638,167.2 	"/>
	<polygon fill="#C6A875" points="609.4,140.1 629.3,153.9 612.9,155.1 	"/>
	<polygon fill="#3A3331" points="638,152.5 630.9,166.4 638,167.2 	"/>
	<polygon fill="#704B39" points="629.3,153.9 619.3,135.9 609.4,140.1 	"/>
	<polygon fill="#917355" points="603.9,106 615,120.6 609.4,140.1 	"/>
	<polygon fill="#82664E" points="619.3,135.9 615,120.6 609.4,140.1 	"/>
	<polygon fill="#232128" points="619.3,135.9 623.2,120.6 615,120.6 	"/>
	<polygon fill="#282228" points="629.3,153.9 633.6,136.5 619.3,135.9 	"/>
	<polygon fill="#2C272E" points="610.4,106.8 612.9,113.4 614.6,106.4 	"/>
	<polygon fill="#211F2D" points="617.3,103.6 623.2,106.8 614.6,106.4 	"/>
	<polygon fill="#241C26" points="614.3,96.6 621,95.4 616.9,99.2 	"/>
	<polygon fill="#2A272A" points="608.7,96.6 611.3,93.9 614.3,96.6 	"/>
	<polygon fill="#453634" points="603.9,106 610.4,106.8 607.2,102.1 	"/>
	<polygon fill="#0C0913" points="608.7,96.6 602.1,96.2 607.2,102.1 	"/>
	<polygon fill="#06060A" points="603.9,106 598,99.6 607.2,102.1 	"/>
	<polygon fill="#06060D" points="602.1,96.2 607.2,102.1 598,99.6 	"/>
	<polygon fill="#080614" points="584.4,96.2 593.3,97.1 589.3,89.7 	"/>
	<polygon fill="#0C0B16" points="598,99.6 593.3,97.1 598,92 	"/>
	<polygon fill="#2A272A" points="608.7,96.6 603.1,93.9 611.3,93.9 	"/>
	<polygon fill="#403C4A" points="621,95.4 619.3,92 614.3,96.6 	"/>
	<polygon fill="#2A272A" points="611.3,93.9 616.5,94.8 614.3,96.6 	"/>
	<polygon fill="#201E2A" points="616.9,89.7 619.3,92 616.5,94.8 	"/>
	<polygon fill="#59504B" points="611.3,93.9 616.9,89.7 616.5,94.8 	"/>
	<polygon fill="#554840" points="603.1,93.9 608.6,89.7 603.1,85.5 	"/>
	<polygon fill="#4F4749" points="611.3,93.9 608.6,89.7 603.1,93.9 	"/>
	<polygon fill="#060613" points="584.4,96.2 574.1,91.4 583.3,86.7 	"/>
	<polygon fill="#080610" points="566.3,84.1 574.1,91.4 575.1,83 	"/>
	<polygon fill="#0B0919" points="559.6,77.7 567.7,76.5 566.3,84.1 	"/>
	<polygon fill="#060619" points="559,72.8 558.3,76.1 559.6,77.7 	"/>
	<polygon fill="#0A0D14" points="566.3,69.3 559,72.8 567.7,76.5 	"/>
	<polygon fill="#06060F" points="575.3,69.3 566.3,69.3 572.3,75.8 	"/>
	<polygon fill="#0B0D18" points="583.6,69.3 575.3,69.3 579.3,75.8 	"/>
	<polygon fill="#0B0916" points="592.2,72.5 583.6,69.3 584.4,77.2 	"/>
	<polygon fill="#151517" points="600,76.5 592.2,72.5 592.2,80.3 	"/>
	<polygon fill="#18131F" points="605.7,76.7 600,76.5 603.1,85.5 	"/>
	<polygon fill="#0C0B19" points="592.2,80.3 603.1,85.5 600,76.5 	"/>
	<polygon fill="#0C0B19" points="559.6,77.7 567.7,76.5 559,72.8 	"/>
	<polygon fill="#0B0D18" points="575.1,83 583.3,86.7 574.1,91.4 	"/>
	<polygon fill="#0B0919" points="589.3,89.7 583.3,86.7 584.4,96.2 	"/>
	<polygon fill="#06060A" points="598,92 589.3,89.7 593.3,97.1 	"/>
	<polygon fill="#0B0D18" points="567.7,76.5 575.1,83 566.3,84.1 	"/>
	<polygon fill="#0B0D18" points="572.3,75.8 567.7,76.5 566.3,69.3 	"/>
	<polygon fill="#060613" points="579.3,75.8 584.4,77.2 583.6,69.3 	"/>
	<polygon fill="#0C0B19" points="592.2,80.3 584.4,77.2 592.2,72.5 	"/>
	<polygon fill="#0B0D18" points="572.3,75.8 579.3,75.8 575.3,69.3 	"/>
	<polygon fill="#0C0B19" points="572.3,75.8 567.7,76.5 575.1,83 	"/>
	<polygon fill="#0C0B19" points="579.3,75.8 575.1,83 572.3,75.8 	"/>
	<polygon fill="#060613" points="584.4,77.2 575.1,83 579.3,75.8 	"/>
	<polygon fill="#0A0D14" points="583.3,86.7 584.4,77.2 575.1,83 	"/>
	<polygon fill="#18131F" points="592.2,80.3 583.3,86.7 584.4,77.2 	"/>
	<polygon fill="#080610" points="589.3,89.7 592.2,80.3 583.3,86.7 	"/>
	<polygon fill="#0B0D18" points="598,92 592.2,80.3 589.3,89.7 	"/>
	<polygon fill="#0B0D18" points="603.1,85.5 598,92 592.2,80.3 	"/>
	<polygon fill="#18131F" points="603.1,93.9 598,92 603.1,85.5 	"/>
	<polygon fill="#080614" points="602.1,96.2 598,92 598,99.6 	"/>
	<polygon fill="#25232C" points="603.1,93.9 602.1,96.2 608.7,96.6 	"/>
	<polygon fill="#18131F" points="598,92 602.1,96.2 603.1,93.9 	"/>
	<polygon fill="#906D4E" points="605.7,76.7 612.7,67.3 615,76.5 	"/>
	<polygon fill="#A78461" points="603.1,85.5 609.9,83 605.7,76.7 	"/>
	<polygon fill="#816C5B" points="608.6,89.7 609.9,83 603.1,85.5 	"/>
	<polygon fill="#564948" points="616.9,89.7 609.9,83 608.6,89.7 	"/>
	<polygon fill="#6C615D" points="608.6,89.7 616.9,89.7 611.3,93.9 	"/>
	<polygon fill="#68534B" points="609.9,83 615,76.5 605.7,76.7 	"/>
	<polygon fill="#2F2A33" points="617.3,103.6 625.8,99.1 621,95.4 	"/>
	<polygon fill="#312830" points="623.2,106.8 625.8,99.1 617.3,103.6 	"/>
	<polygon fill="#3E3333" points="612.9,113.4 615,120.6 608.1,111.6 	"/>
	<polygon fill="#372B25" points="610.4,106.8 612.9,113.4 608.1,111.6 	"/>
	<polygon fill="#7A6857" points="603.9,106 608.1,111.6 610.4,106.8 	"/>
	<polygon fill="#342F31" points="612.9,113.4 618.5,113.1 614.6,106.4 	"/>
	<polygon fill="#27262F" points="623.2,106.8 618.5,113.1 614.6,106.4 	"/>
	<polygon fill="#0C0612" points="619.3,92 625.3,90 621,95.4 	"/>
	<polygon fill="#0A0C18" points="625.8,99.1 625.3,90 621,95.4 	"/>
	<polygon fill="#433735" points="609.9,83 618,80.3 616.9,89.7 	"/>
	<polygon fill="#644A42" points="615,76.5 618,80.3 609.9,83 	"/>
	<polygon fill="#292730" points="623.2,106.8 631.2,105.4 625.8,99.1 	"/>
	<polygon fill="#242229" points="615,120.6 618.5,113.1 612.9,113.4 	"/>
	<polygon fill="#3F3534" points="623.2,106.8 624,111.2 618.5,113.1 	"/>
	<polygon fill="#201D2C" points="615,120.6 623.2,120.6 618.5,113.1 	"/>
	<polygon fill="#29272D" points="624,111.2 623.2,120.6 618.5,113.1 	"/>
	<polygon fill="#2D2633" points="633.6,136.5 623.2,120.6 619.3,135.9 	"/>
	<polygon fill="#423437" points="629.3,153.9 638,152.5 630.9,166.4 	"/>
	<polygon fill="#493431" points="633.6,136.5 638,152.5 629.3,153.9 	"/>
	<polygon fill="#C9AB77" points="702.4,167.2 706.2,145.2 699,151.6 	"/>
	<polygon fill="#997B58" points="690.6,170.3 691.9,163.1 702.4,167.2 	"/>
	<polygon fill="#8F705C" points="699,151.6 691.9,163.1 702.4,167.2 	"/>
	<polygon fill="#EAD8A3" points="685.9,153.9 689.6,149 691.9,163.1 	"/>
	<polygon fill="#AE8465" points="699,151.6 689.6,149 691.9,163.1 	"/>
	<polygon fill="#D8B88A" points="707.3,134.2 699,151.6 706.2,145.2 	"/>
	<polygon fill="#D0AF81" points="681.4,147.6 689.6,149 685.9,153.9 	"/>
	<polygon fill="#AC8561" points="638,152.5 651.8,150.8 653.3,158 	"/>
	<polygon fill="#3F322D" points="633.6,136.5 638,131.2 638,152.5 	"/>
	<polygon fill="#946F4D" points="651.8,150.8 647.1,143.9 638,152.5 	"/>
	<polygon fill="#A67755" points="657.9,134.2 651.8,150.8 660.3,149.9 	"/>
	<polygon fill="#C09468" points="647.1,143.9 657.9,134.2 651.8,150.8 	"/>
	<polygon fill="#816A51" points="670.2,141.6 677.1,149.9 681.4,147.6 	"/>
	<polygon fill="#C5A473" points="699,151.6 697.2,138.1 707.3,134.2 	"/>
	<polygon fill="#B99969" points="707.3,120.6 697.2,138.1 707.3,134.2 	"/>
	<polygon fill="#B29065" points="708.7,106 707.3,120.6 704.2,112.4 	"/>
	<polygon fill="#6D5948" points="697.2,138.1 704.2,112.4 707.3,120.6 	"/>
	<polygon fill="#202633" points="704.2,99.8 706.4,97.9 711.2,99.2 707.7,100.6 	"/>
	<polygon fill="#B3A57C" points="705.1,94.6 706.4,97.9 710.4,94.6 	"/>
	<polygon fill="#A6906C" points="711.2,99.2 710.4,94.6 706.4,97.9 	"/>
	<polygon fill="#E5E2B0" points="707.7,100.6 710.4,102.8 711.2,99.2 	"/>
	<polygon fill="#E5E2B0" points="705.1,94.6 702.4,96.9 706.4,97.9 	"/>
	<polygon fill="#E5E2B0" points="704.2,99.8 706.4,97.9 702.4,96.9 	"/>
	<polygon fill="#E5E2B0" points="707.7,100.6 710.4,102.8 706.4,103.8 	"/>
	<polygon fill="#E5E2B0" points="704.2,99.8 701.7,101.8 702.4,96.9 	"/>
	<polygon fill="#E5E2B0" points="706.4,103.8 707.7,100.6 704.2,99.8 	"/>
	<polygon fill="#E5E2B0" points="701.7,101.8 706.4,103.8 704.2,99.8 	"/>
	<polygon fill="#C6B689" points="710.4,102.8 708.7,106 706.4,103.8 	"/>
	<polygon fill="#473F40" points="704.2,112.4 706.4,103.8 708.7,106 	"/>
	<polygon fill="#141320" points="701.7,101.8 697.2,101.9 701.7,106.8 	"/>
	<polygon fill="#151225" points="704.2,112.4 701.7,106.8 706.4,103.8 	"/>
	<polygon fill="#5A544C" points="701.7,101.8 706.4,103.8 701.7,106.8 	"/>
	<polygon fill="#493034" points="697.2,101.9 702.4,96.9 701.7,101.8 	"/>
	<polygon fill="#4E4840" points="705.1,94.6 700.8,91.8 702.4,96.9 	"/>
	<polygon fill="#2D2D38" points="710.4,94.6 707.7,89.7 705.1,94.6 	"/>
	<polygon fill="#8D7D69" points="711.2,99.2 713.7,93.4 710.4,94.6 	"/>
	<polygon fill="#948770" points="707.7,89.7 711.2,85.5 710.4,94.6 	"/>
	<polygon fill="#867470" points="713.7,93.4 711.2,85.5 710.4,94.6 	"/>
	<polygon fill="#655B56" points="707.7,89.7 700.8,91.8 705.1,94.6 	"/>
	<polygon fill="#504043" points="702.4,96.9 697.2,95.4 700.8,91.8 	"/>
	<polygon fill="#443939" points="697.2,101.9 697.2,95.4 702.4,96.9 	"/>
	<polygon fill="#2E2C32" points="701.7,106.8 695.9,107.8 697.2,101.9 	"/>
	<polygon fill="#463D42" points="699.8,110.6 701.7,106.8 704.2,112.4 	"/>
	<polygon fill="#2C2A37" points="695.9,107.8 699.8,110.6 701.7,106.8 	"/>
	<polygon fill="#605251" points="697.2,101.9 688.9,101 695.9,107.8 	"/>
	<polygon fill="#1C1A26" points="697.2,95.4 688.9,101 697.2,101.9 	"/>
	<polygon fill="#272630" points="695.9,107.8 688,108.1 688.9,101 	"/>
	<polygon fill="#2F2C32" points="699.8,110.6 693,113.4 695.9,107.8 	"/>
	<polygon fill="#463B39" points="698.8,116.1 699.8,110.6 704.2,112.4 	"/>
	<polygon fill="#5A4D4D" points="697.2,138.1 704.2,112.4 698.8,116.1 	"/>
	<polygon fill="#4F4944" points="699.8,110.6 693,113.4 698.8,116.1 	"/>
	<polygon fill="#5D5853" points="688,108.1 693,113.4 695.9,107.8 	"/>
	<polygon fill="#C6A67E" points="689.6,149 687.4,141.6 681.4,147.6 	"/>
	<polygon fill="#D9BD89" points="682.9,135.9 687.4,141.6 681.4,147.6 	"/>
	<polygon fill="#D3BF8E" points="689.6,149 693,142.9 687.4,141.6 	"/>
	<polygon fill="#AD876A" points="699,151.6 693,142.9 689.6,149 	"/>
	<polygon fill="#594338" points="697.2,138.1 693,142.9 699,151.6 	"/>
	<polygon fill="#2B2633" points="698.8,116.1 691.9,123.1 693,113.4 	"/>
	<polygon fill="#5E4F47" points="697.2,138.1 691.9,123.1 698.8,116.1 	"/>
	<polygon fill="#634947" points="693,142.9 697.2,138.1 691.9,123.1 	"/>
	<polygon fill="#E3C98C" points="687.4,124 693,142.9 687.4,141.6 	"/>
	<polygon fill="#DCC38E" points="668.8,125.8 687.4,124 682.9,115.1 	"/>
	<polygon fill="#D7B988" points="682.9,135.9 687.4,124 687.4,141.6 	"/>
	<polygon fill="#DBC693" points="668.8,125.8 682.9,135.9 687.4,124 	"/>
	<polygon fill="#876B56" points="691.9,123.1 687.4,124 693,142.9 	"/>
	<polygon fill="#4E4238" points="693,113.4 687.4,124 691.9,123.1 	"/>
	<polygon fill="#7E624D" points="682.9,115.1 693,113.4 687.4,124 	"/>
	<polygon fill="#8C6B53" points="688,108.1 693,113.4 682.9,115.1 	"/>
	<polygon fill="#B28A62" points="647.1,143.9 638,131.2 638,152.5 	"/>
	<polygon fill="#BD9E6E" points="668.8,125.8 653.8,125.3 655.1,115.1 	"/>
	<polygon fill="#D4B175" points="657.9,134.2 668.8,125.8 653.8,125.3 	"/>
	<polygon fill="#B69160" points="647.1,143.9 647.7,131.2 657.9,134.2 	"/>
	<polygon fill="#BD9266" points="653.8,125.3 647.7,131.2 657.9,134.2 	"/>
	<polygon fill="#A2724D" points="638,131.2 647.7,131.2 647.1,143.9 	"/>
	<polygon fill="#343033" points="623.2,120.6 633.6,118.3 633.6,136.5 	"/>
	<polygon fill="#534943" points="624,111.2 633.6,118.3 623.2,120.6 	"/>
	<polygon fill="#241F29" points="631.2,105.4 624,111.2 623.2,106.8 	"/>
	<polygon fill="#8B6145" points="638,131.2 644,121.3 647.7,131.2 	"/>
	<polygon fill="#B9915C" points="653.8,125.3 647.7,131.2 644,121.3 	"/>
	<polygon fill="#AD8059" points="655.1,115.1 644,121.3 653.8,125.3 	"/>
	<polygon fill="#24222C" points="633.6,118.3 631.2,105.4 624,111.2 	"/>
	<polygon fill="#44353B" points="638,131.2 633.6,118.3 633.6,136.5 	"/>
	<polygon fill="#745646" points="644,121.3 633.6,118.3 638,131.2 	"/>
	<polygon fill="#B48B69" points="655.1,115.1 646.6,109.6 644,121.3 	"/>
	<polygon fill="#876245" points="633.6,118.3 646.6,109.6 644,121.3 	"/>
	<polygon fill="#553E37" points="631.2,105.4 640.6,106 633.6,118.3 	"/>
	<polygon fill="#6D5345" points="640.6,106 646.6,109.6 633.6,118.3 	"/>
	<polygon fill="#BB9070" points="668.8,106 646.6,109.6 655.1,115.1 	"/>
	<polygon fill="#987758" points="688,108.1 682.9,115.1 668.8,106 	"/>
	<polygon fill="#B18D69" points="683.1,96.2 668.8,106 688,108.1 	"/>
	<polygon fill="#BB9070" points="678.1,87 668.8,106 683.1,96.2 	"/>
	<polygon fill="#BF986C" points="646.6,109.6 647.7,99.4 668.8,106 	"/>
	<polygon fill="#9D7957" points="651.8,87.5 647.7,99.4 668.8,106 	"/>
	<polygon fill="#30292A" points="688.9,101 683.1,96.2 688,108.1 	"/>
	<polygon fill="#16161C" points="697.2,95.4 693,86.1 700.8,91.8 	"/>
	<polygon fill="#473C3C" points="702,81.9 700.8,91.8 707.7,89.7 	"/>
	<polygon fill="#9B826D" points="711.2,85.5 702,81.9 707.7,89.7 	"/>
	<polygon fill="#231E25" points="688.9,101 697.2,95.4 693,86.1 	"/>
	<polygon fill="#22222B" points="683.1,96.2 693,86.1 688.9,101 	"/>
	<polygon fill="#2B222B" points="678.1,87 693,86.1 683.1,96.2 	"/>
	<polygon fill="#2D2629" points="682.7,77.2 678.1,87 693,86.1 	"/>
	<polygon fill="#3A3434" points="702,81.9 693,86.1 700.8,91.8 	"/>
	<polygon fill="#A68C6A" points="662.3,73.4 678.1,87 682.7,77.2 	"/>
	<polygon fill="#885F45" points="690.6,73.3 693,86.1 682.7,77.2 	"/>
	<polygon fill="#98745D" points="702,81.9 690.6,73.3 693,86.1 	"/>
	<path fill="#B28E6E" d="M706.6,72.9"/>
	<polygon fill="#DBBE89" points="711.2,85.5 705.6,70.8 697.2,62 	"/>
	<polygon fill="#C1997A" points="702,81.9 697.2,62 711.2,85.5 	"/>
	<polygon fill="#947453" points="690.6,73.3 697.2,62 702,81.9 	"/>
	<polygon fill="#A08A66" points="671.4,46.7 687.4,51.1 697.2,62 	"/>
	<polygon fill="#BA9B6E" points="690.6,73.3 679.3,61.1 697.2,62 	"/>
	<polygon fill="#9D846C" points="682.7,77.2 690.6,73.3 679.3,61.1 	"/>
	<polygon fill="#C2AA7E" points="662.3,73.4 679.3,61.1 682.7,77.2 	"/>
	<polygon fill="#E3DCA4" points="659.2,57.3 662.3,73.4 679.3,61.1 	"/>
	<polygon fill="#B6A689" points="640.1,66.5 659.2,57.3 662.3,73.4 	"/>
	<polygon fill="#F9FAD5" points="635.8,46.7 653.8,43.4 671.4,46.7 	"/>
	<polygon fill="#F4EAB0" points="655.1,50.1 671.4,46.7 635.8,46.7 	"/>
	<polygon fill="#E0D194" points="679.3,61.1 671.4,46.7 655.1,50.1 	"/>
	<polygon fill="#957254" points="679.3,61.1 697.2,62 671.4,46.7 	"/>
	<polygon fill="#5A4D47" points="612.7,67.3 622.3,54.4 635.8,46.7 	"/>
	<polygon fill="#7A5245" points="630.1,57.3 635.8,46.7 612.7,67.3 	"/>
	<polygon fill="#C7AC76" points="655.1,50.1 630.1,57.3 635.8,46.7 	"/>
	<polygon fill="#E3CF95" points="640.1,66.5 655.1,50.1 630.1,57.3 	"/>
	<polygon fill="#E7D2A2" points="659.2,57.3 679.3,61.1 655.1,50.1 	"/>
	<polygon fill="#E7DBA9" points="640.1,66.5 659.2,57.3 655.1,50.1 	"/>
	<polygon fill="#876F57" points="615,76.5 630.1,57.3 612.7,67.3 	"/>
	<polygon fill="#C5B780" points="640.1,66.5 615,76.5 630.1,57.3 	"/>
	<polygon fill="#CDB786" points="651.8,87.5 642.9,79.4 662.3,73.4 	"/>
	<polygon fill="#DBCB9B" points="640.1,66.5 642.9,79.4 662.3,73.4 	"/>
	<polygon fill="#342F37" points="616.9,89.7 622.3,85.8 619.3,92 	"/>
	<polygon fill="#4C3B38" points="618,80.3 622.3,85.8 616.9,89.7 	"/>
	<polygon fill="#2F2A2E" points="625.3,90 622.3,85.8 619.3,92 	"/>
	<polygon fill="#11111A" points="625.8,99.1 633.6,94.3 631.2,105.4 	"/>
	<polygon fill="#322A2D" points="640.6,106 633.6,94.3 631.2,105.4 	"/>
	<polygon fill="#58453F" points="647.7,99.4 640.6,106 646.6,109.6 	"/>
	<polygon fill="#6E4A3E" points="651.8,87.5 642.5,90.8 642.9,79.4 	"/>
	<polygon fill="#7E6041" points="647.7,99.4 651.8,87.5 642.5,90.8 	"/>
	<polygon fill="#574640" points="640.6,106 642.5,90.8 647.7,99.4 	"/>
	<polygon fill="#4B3E39" points="633.6,94.3 642.5,90.8 640.6,106 	"/>
	<polygon fill="#473F3E" points="642.9,79.4 631.2,84.1 642.5,90.8 	"/>
	<polygon fill="#81634C" points="640.1,66.5 631.2,75.8 642.9,79.4 	"/>
	<polygon fill="#8C634C" points="631.2,84.1 631.2,75.8 642.9,79.4 	"/>
	<polygon fill="#AB7F5E" points="615,76.5 631.2,75.8 640.1,66.5 	"/>
	<polygon fill="#292129" points="625.3,90 642.5,90.8 631.2,84.1 	"/>
	<polygon fill="#51413C" points="622.3,85.8 631.2,84.1 625.3,90 	"/>
	<polygon fill="#BC936C" points="618,80.3 631.2,75.8 622.3,85.8 	"/>
	<polygon fill="#3D3131" points="631.2,84.1 631.2,75.8 622.3,85.8 	"/>
	<polygon fill="#937054" points="618,80.3 631.2,75.8 615,76.5 	"/>
	<polygon fill="#1A1726" points="633.6,94.3 642.5,90.8 625.3,90 	"/>
	<polygon fill="#181622" points="625.8,99.1 633.6,94.3 625.3,90 	"/>
	<polygon fill="#312E34" points="657.9,177.3 650.1,170.3 645.7,174.9 	"/>
	<polygon fill="#917356" points="653.3,158 645.7,174.9 650.1,170.3 	"/>
	<polygon fill="#845E4C" points="697.2,62 704.2,55.6 705.6,70.8 	"/>
	<polygon fill="#422E31" points="711.2,85.5 717.1,74.6 705.6,70.8 	"/>
	<polygon fill="#4A3D38" points="716.4,63 705.6,70.8 717.1,74.6 	"/>
	<polygon fill="#3F2A2A" points="725.1,56.4 717.1,74.6 716.4,63 	"/>
	<polygon fill="#C5A777" points="732.2,44.2 725.1,56.4 726.3,47.5 	"/>
	<polygon fill="#64493B" points="716.4,63 726.3,47.5 725.1,56.4 	"/>
	<polygon fill="#E5DCB5" points="732.2,39.2 732.2,44.2 726.3,47.5 	"/>
	<polygon fill="#E5DAA5" points="726.3,39.2 732.2,39.2 726.3,47.5 	"/>
	<polygon fill="#624C39" points="716.4,63 709.5,60.5 705.6,70.8 	"/>
	<polygon fill="#C3A56F" points="726.3,47.5 717.7,52.6 716.4,63 	"/>
	<polygon fill="#E6DBB8" points="726.3,39.2 721.3,39.7 711.3,47.8 	"/>
	<polygon fill="#EBDEA7" points="726.3,47.5 720.7,45.1 726.3,39.2 	"/>
	<polygon fill="#E1D1A7" points="717.7,52.6 720.7,45.1 726.3,47.5 	"/>
	<polygon fill="#A38763" points="709.5,60.5 717.7,52.6 716.4,63 	"/>
	<polygon fill="#E3DA9E" points="704.2,55.6 711.3,47.8 709.5,60.5 	"/>
	<polygon fill="#D1BB88" points="717.7,52.6 711.3,47.8 709.5,60.5 	"/>
	<polygon fill="#CDB387" points="720.7,45.1 711.3,47.8 717.7,52.6 	"/>
	<polygon fill="#6F6857" points="726.3,39.2 720.7,45.1 711.3,47.8 	"/>
	<polygon fill="#C8A87A" points="704.2,55.6 705.6,70.8 709.5,60.5 	"/>
	<polygon fill="#353037" points="697.2,62 698,55.2 704.2,55.6 	"/>
	<polygon fill="#18121F" points="711.3,47.8 705.1,49.5 704.2,55.6 	"/>
	<polygon fill="#232323" points="721.3,39.7 713.7,41.6 711.3,47.8 	"/>
	<polygon fill="#13111A" points="726.3,39.2 723.5,35.4 721.3,39.7 	"/>
	<polygon fill="#110E15" points="733.4,35.4 726.3,39.2 728.6,34.2 	"/>
	<polygon fill="#161316" points="748.5,35.4 733.4,35.4 740.9,32 	"/>
	<polygon fill="#1E1920" points="761.1,39.7 748.5,35.4 757,34.2 	"/>
	<polygon fill="#1D1A1D" points="769.9,46.1 761.1,39.7 766.8,39.2 	"/>
	<polygon fill="#544644" points="784.3,66.5 778.7,56.4 784.3,61.1 	"/>
	<polygon fill="#232226" points="788.8,79.7 784.3,66.5 788.8,72.9 	"/>
	<polygon fill="#46423A" points="791.8,91.8 788.8,79.7 792.9,86.1 	"/>
	<polygon fill="#56514A" points="792.9,101.9 791.8,91.8 795.1,96.9 	"/>
	<polygon fill="#47403F" points="794.7,115.1 792.9,101.9 796.5,106.8 	"/>
	<polygon fill="#504E41" points="798.3,120.5 794.7,115.1 796.5,106.8 	"/>
	<polygon fill="#615F58" points="798.4,106.4 798.3,120.5 796.5,106.8 	"/>
	<polygon fill="#A49A79" points="797.4,91.2 798.4,106.4 795.1,96.9 	"/>
	<polygon fill="#C5AE87" points="794.7,75.2 797.4,91.2 792.9,86.1 	"/>
	<polygon fill="#BBA680" points="792.2,63 794.7,75.2 790.3,69.2 	"/>
	<polygon fill="#BDA47E" points="788.8,48.8 792.2,63 788.3,55.9 	"/>
	<polygon fill="#CEBE8D" points="785.3,32 788.8,48.8 784.8,42.6 	"/>
	<polygon fill="#605C4B" points="796.5,106.8 795.1,96.9 798.4,106.4 	"/>
	<polygon fill="#4D4B40" points="796.5,106.8 795.1,96.9 792.9,101.9 	"/>
	<polygon fill="#796D59" points="797.4,91.2 795.1,96.9 792.9,86.1 	"/>
	<polygon fill="#423F37" points="791.8,91.8 795.1,96.9 792.9,86.1 	"/>
	<polygon fill="#232226" points="788.8,72.9 792.9,86.1 788.8,79.7 	"/>
	<polygon fill="#C6B38B" points="790.3,69.2 792.9,86.1 794.7,75.2 	"/>
	<polygon fill="#5D4F48" points="788.8,72.9 790.3,69.2 792.9,86.1 	"/>
	<polygon fill="#937E62" points="788.3,55.9 786.6,62 792.2,63 	"/>
	<polygon fill="#A79775" points="790.3,69.2 786.6,62 792.2,63 	"/>
	<polygon fill="#373030" points="784.3,66.5 786.6,62 790.3,69.2 	"/>
	<polygon fill="#31282B" points="788.8,72.9 790.3,69.2 784.3,66.5 	"/>
	<polygon fill="#7E7057" points="784.3,61.1 788.3,55.9 778.7,56.4 	"/>
	<polygon fill="#AA9271" points="786.6,62 784.3,61.1 784.3,66.5 	"/>
	<polygon fill="#7E7057" points="788.3,55.9 784.3,61.1 786.6,62 	"/>
	<polygon fill="#635446" points="776.2,48.4 788.3,55.9 778.7,56.4 	"/>
	<polygon fill="#A1916D" points="788.8,48.8 776.2,48.4 788.3,55.9 	"/>
	<polygon fill="#3C3E39" points="766.8,39.2 776.2,48.4 769.9,46.1 	"/>
	<polygon fill="#B3A07C" points="784.8,42.6 776.2,48.4 788.8,48.8 	"/>
	<polygon fill="#3C3A37" points="766.8,39.2 774.3,42.6 776.2,48.4 	"/>
	<polygon fill="#837262" points="781.5,34.7 774.3,42.6 776.2,36.7 	"/>
	<polygon fill="#968365" points="784.8,42.6 776.2,48.4 774.3,42.6 	"/>
	<polygon fill="#927E68" points="785.3,32 781.5,34.7 784.8,42.6 	"/>
	<polygon fill="#A39574" points="781.5,34.7 774.3,42.6 784.8,42.6 	"/>
	<polygon fill="#E2CE9B" points="785.3,32 776.2,22.6 781.5,34.7 	"/>
	<polygon fill="#E7D6B2" points="763.1,13.6 776.2,22.6 766.8,19.4 	"/>
	<polygon fill="#D0BF9A" points="750.1,7.7 763.1,13.6 755.4,12.2 	"/>
	<polygon fill="#E6D8B3" points="739.7,4.8 726.3,5.6 733.4,7.7 	"/>
	<polygon fill="#E2DEC0" points="750.1,7.7 739.7,4.8 744.2,9.1 	"/>
	<polygon fill="#EEEBCD" points="726.3,5.6 713.6,10.1 721.3,10.1 	"/>
	<polygon fill="#E1D5B2" points="700.7,17.5 713.6,10.1 711,15.4 	"/>
	<polygon fill="#DDCEA4" points="687.6,28.6 700.7,17.5 696.5,25 	"/>
	<polygon fill="#DCCDA3" points="678.5,38.9 687.6,28.6 686.1,35.4 	"/>
	<polygon fill="#C2B590" points="671.4,46.7 678.5,38.9 678.5,43.8 	"/>
	<polygon fill="#806E59" points="686.9,40.4 692.4,46.7 694.2,44.2 	"/>
	<polygon fill="#705951" points="697.7,50.3 694.2,44.2 692.4,46.7 	"/>
	<polygon fill="#60564C" points="695,30.7 701.4,37.3 703.1,34 	"/>
	<polygon fill="#837062" points="706.8,41.4 703.1,34 701.4,37.3 	"/>
	<polygon fill="#81725A" points="700.7,23.1 705.6,29.4 706.8,26.2 	"/>
	<polygon fill="#877862" points="711,34.7 705.6,29.4 706.8,26.2 	"/>
	<polygon fill="#756555" points="698,55.2 687.4,51.1 697.2,62 	"/>
	<polygon fill="#786C55" points="687.4,51.1 692.4,46.7 697.7,50.3 	"/>
	<polygon fill="#6F5B42" points="698,55.2 697.7,50.3 687.4,51.1 	"/>
	<polygon fill="#95856E" points="678.5,43.8 687.4,51.1 671.4,46.7 	"/>
	<polygon fill="#B29E79" points="686.9,40.4 687.4,51.1 692.4,46.7 	"/>
	<polygon fill="#B7A181" points="678.5,43.8 686.9,40.4 687.4,51.1 	"/>
	<polygon fill="#A19771" points="678.5,38.9 686.9,40.4 678.5,43.8 	"/>
	<polygon fill="#A8977A" points="686.1,35.4 686.9,40.4 678.5,38.9 	"/>
	<polygon fill="#A4946D" points="694.2,44.2 689.6,39.2 686.9,40.4 	"/>
	<polygon fill="#AB9B7E" points="686.1,35.4 689.6,39.2 686.9,40.4 	"/>
	<polygon fill="#7F6D5B" points="694.2,44.2 705.1,49.5 697.7,50.3 	"/>
	<polygon fill="#B3A181" points="689.6,39.2 687.6,28.6 686.1,35.4 	"/>
	<polygon fill="#AC967B" points="695,30.7 687.6,28.6 696.5,25 	"/>
	<polygon fill="#C6B68F" points="689.6,39.2 695,30.7 687.6,28.6 	"/>
	<polygon fill="#83755D" points="697.2,40.4 694.2,44.2 689.6,39.2 	"/>
	<polygon fill="#635D46" points="705.1,49.5 706.8,41.4 700.9,42.6 	"/>
	<polygon fill="#746255" points="697.2,40.4 700.9,42.6 705.1,49.5 	"/>
	<polygon fill="#796755" points="694.2,44.2 705.1,49.5 697.2,40.4 	"/>
	<polygon fill="#796755" points="697.2,40.4 706.8,41.4 700.9,42.6 	"/>
	<polygon fill="#9E8B73" points="695,30.7 697.2,40.4 689.6,39.2 	"/>
	<polygon fill="#7B7162" points="701.4,37.3 706.8,41.4 697.2,40.4 	"/>
	<polygon fill="#988A69" points="695,30.7 697.2,40.4 701.4,37.3 	"/>
	<polygon fill="#3D3432" points="698,55.2 705.1,49.5 704.2,55.6 	"/>
	<polygon fill="#1C1C1B" points="713.7,41.6 705.1,49.5 711.3,47.8 	"/>
	<polygon fill="#0A0916" points="723.5,35.4 713.7,41.6 721.3,39.7 	"/>
	<polygon fill="#1F1E1E" points="728.6,34.2 723.5,35.4 726.3,39.2 	"/>
	<polygon fill="#231D1F" points="733.4,35.4 740.9,32 728.6,34.2 	"/>
	<polygon fill="#241C26" points="748.5,35.4 757,34.2 740.9,32 	"/>
	<polygon fill="#302A2E" points="766.8,39.2 757,34.2 761.1,39.7 	"/>
	<polygon fill="#675645" points="705.1,49.5 697.7,50.3 698,55.2 	"/>
	<polygon fill="#8A775F" points="713.7,41.6 706.8,41.4 705.1,49.5 	"/>
	<polygon fill="#5D5046" points="723.5,35.4 716,35.4 713.7,41.6 	"/>
	<polygon fill="#8B775E" points="711,34.7 706.8,41.4 713.7,41.6 	"/>
	<polygon fill="#786C58" points="716,35.4 711,34.7 713.7,41.6 	"/>
	<polygon fill="#403836" points="728.6,34.2 723.5,29.4 723.5,35.4 	"/>
	<polygon fill="#333332" points="716,35.4 723.5,29.4 723.5,35.4 	"/>
	<polygon fill="#AA9B7F" points="703.1,34 711,34.7 706.8,41.4 	"/>
	<polygon fill="#AC987E" points="705.6,29.4 711,34.7 703.1,34 	"/>
	<polygon fill="#AE9F7E" points="696.5,25 703.1,34 695,30.7 	"/>
	<polygon fill="#AE9F7E" points="700.7,23.1 705.6,29.4 703.1,34 	"/>
	<polygon fill="#C8B58E" points="696.5,25 711,15.4 700.7,17.5 	"/>
	<polygon fill="#B5A382" points="700.7,23.1 703.1,34 696.5,25 	"/>
	<polygon fill="#C7B689" points="706.8,26.2 711,15.4 700.7,23.1 	"/>
	<polygon fill="#C7B689" points="696.5,25 700.7,23.1 711,15.4 	"/>
	<polygon fill="#A8977B" points="706.8,26.2 712.3,22.6 711,15.4 	"/>
	<polygon fill="#9B8C6F" points="711,34.7 712.3,22.6 706.8,26.2 	"/>
	<polygon fill="#76665D" points="723.5,29.4 719.9,23.1 717.1,25.5 	"/>
	<polygon fill="#665554" points="712.3,22.6 717.1,25.5 719.9,23.1 	"/>
	<polygon fill="#AC9A79" points="711,34.7 717.1,25.5 712.3,22.6 	"/>
	<polygon fill="#B8A487" points="711,15.4 719.9,23.1 712.3,22.6 	"/>
	<polygon fill="#887761" points="716,35.4 717.1,25.5 711,34.7 	"/>
	<polygon fill="#A79775" points="723.5,29.4 716,35.4 717.1,25.5 	"/>
	<polygon fill="#CDBD92" points="721.3,10.1 711,15.4 713.6,10.1 	"/>
	<polygon fill="#E6D8B3" points="733.4,7.7 721.3,10.1 726.3,5.6 	"/>
	<polygon fill="#DECCA6" points="744.2,9.1 733.4,7.7 739.7,4.8 	"/>
	<polygon fill="#DDD5A8" points="755.4,12.2 744.2,9.1 750.1,7.7 	"/>
	<polygon fill="#CDBC95" points="766.8,19.4 763.1,13.6 755.4,12.2 	"/>
	<polygon fill="#CDBC95" points="781.5,34.7 776.2,22.6 775.4,27.8 	"/>
	<polygon fill="#CDBC95" points="766.8,19.4 775.4,27.8 776.2,22.6 	"/>
	<polygon fill="#C5AD7E" points="776.2,36.7 781.5,34.7 775.4,27.8 	"/>
	<polygon fill="#9C8E6E" points="774.3,42.6 776.2,36.7 766.8,39.2 	"/>
	<polygon fill="#686254" points="775.4,27.8 769.9,32.4 776.2,36.7 	"/>
	<polygon fill="#998868" points="766.8,39.2 776.2,36.7 769.9,32.4 	"/>
	<polygon fill="#67574F" points="757,34.2 764.1,29.5 766.8,39.2 	"/>
	<polygon fill="#9B8A73" points="769.9,32.4 764.1,29.5 766.8,39.2 	"/>
	<polygon fill="#BFA780" points="775.4,27.8 764.1,29.5 769.9,32.4 	"/>
	<polygon fill="#A3977D" points="766.8,19.4 775.4,27.8 764.1,29.5 	"/>
	<polygon fill="#7F6C57" points="757,34.2 754.8,27.1 764.1,29.5 	"/>
	<polygon fill="#B1A077" points="766.8,19.4 756.6,17.5 755.4,12.2 	"/>
	<polygon fill="#AE9A6F" points="764.1,29.5 756.6,17.5 766.8,19.4 	"/>
	<polygon fill="#9F8D72" points="754.8,27.1 756.6,17.5 764.1,29.5 	"/>
	<polygon fill="#2E292A" points="740.9,32 754.8,27.1 757,34.2 	"/>
	<polygon fill="#3B3332" points="728.6,34.2 740.9,32 723.5,29.4 	"/>
	<polygon fill="#342C2E" points="740.4,26.2 740.9,32 754.8,27.1 	"/>
	<polygon fill="#3D3332" points="723.5,29.4 740.9,32 740.4,26.2 	"/>
	<polygon fill="#B5A480" points="730.2,24.6 723.5,29.4 740.4,26.2 	"/>
	<polygon fill="#918169" points="754.8,27.1 745.6,22.6 739.7,26.1 	"/>
	<polygon fill="#BAA67D" points="754.8,27.1 749.8,18.1 756.6,17.5 	"/>
	<polygon fill="#C7B88B" points="755.4,12.2 749.8,18.1 756.6,17.5 	"/>
	<polygon fill="#CAB98C" points="744.2,9.1 749.8,18.1 755.4,12.2 	"/>
	<polygon fill="#B8A280" points="745.6,22.6 749.8,18.1 754.8,27.1 	"/>
	<polygon fill="#CAB68B" points="744.2,9.1 749.8,18.1 745.6,22.6 	"/>
	<polygon fill="#968969" points="730.2,24.6 719.9,23.1 723.5,29.4 	"/>
	<polygon fill="#B5A483" points="721.3,10.1 720.7,15.8 711,15.4 	"/>
	<polygon fill="#C1AF90" points="733.4,7.7 737.5,12.2 744.2,9.1 	"/>
	<polygon fill="#C4B48B" points="745.6,22.6 737.5,12.2 744.2,9.1 	"/>
	<polygon fill="#CEBA8F" points="721.3,10.1 737.5,12.2 733.4,7.7 	"/>
	<polygon fill="#BEA986" points="745.6,22.6 737.5,12.2 740.4,26.2 	"/>
	<polygon fill="#CBB590" points="730.2,24.6 737.5,12.2 740.4,26.2 	"/>
	<polygon fill="#BBA586" points="720.7,15.8 730.2,24.6 721.3,10.1 	"/>
	<polygon fill="#BDAE89" points="737.5,12.2 728.6,15.2 730.2,24.6 	"/>
	<polygon fill="#A89676" points="721.3,10.1 728.6,15.2 737.5,12.2 	"/>
	<polygon fill="#B2A381" points="730.2,24.6 728.6,15.2 721.3,10.1 	"/>
	<polygon fill="#AC9978" points="720.7,15.8 719.9,23.1 711,15.4 	"/>
	<polygon fill="#BEA683" points="719.9,23.1 730.2,24.6 720.7,15.8 	"/>
	<polygon fill="#2F2625" points="612.7,67.3 595.6,52.8 606.6,57 	"/>
	<polygon fill="#06060E" points="579.5,45.8 595.6,52.8 588.3,45.8 	"/>
	<polygon fill="#151519" points="566.3,43.4 579.5,45.8 572.9,41.7 	"/>
	<polygon fill="#06060E" points="552,44.2 566.3,43.4 558.3,40.4 	"/>
	<polygon fill="#090917" points="538.5,49.5 552,44.2 543.3,43.7 	"/>
	<polygon fill="#090912" points="526.8,57 538.5,49.5 529.3,52 	"/>
	<polygon fill="#090912" points="517.4,66.9 526.8,57 519.1,61.1 	"/>
	<polygon fill="#4F4B40" points="510.7,77.2 517.4,66.9 512.4,70.3 	"/>
	<polygon fill="#6A5D5A" points="504.9,90.8 510.7,77.2 505.2,81.9 	"/>
	<polygon fill="#BBA780" points="503.7,102.9 504.9,90.8 501.7,98.4 	"/>
	<polygon fill="#C3AF89" points="503.1,118.7 503.7,102.9 500.7,107.8 	"/>
	<polygon fill="#B5A689" points="503.7,131.2 503.1,118.7 500.7,124 	"/>
	<polygon fill="#6B6355" points="505.7,140.1 503.7,131.2 502.2,135.7 	"/>
	<polygon fill="#8E836C" points="501.7,140.1 502.2,135.7 505.7,140.1 	"/>
	<polygon fill="#787665" points="497,128.2 501.7,140.1 502.2,135.7 	"/>
	<polygon fill="#BDA881" points="493.8,110.8 497,128.2 498.1,118.3 	"/>
	<polygon fill="#A79472" points="492.1,89.7 493.8,110.8 496,98.6 	"/>
	<polygon fill="#BCAB7B" points="493.8,69.2 492.1,89.7 496,79.9 	"/>
	<polygon fill="#C9BA8C" points="503.7,48.9 493.8,69.2 500.7,62 	"/>
	<polygon fill="#BAA988" points="516.4,34 503.7,48.9 511.7,44.2 	"/>
	<polygon fill="#ADA283" points="532.6,22.3 516.4,34 526.8,29.5 	"/>
	<polygon fill="#DDCBA0" points="550.3,15.4 532.6,22.3 543.1,20.8 	"/>
	<polygon fill="#E4DDBC" points="571.4,13.8 550.3,15.4 560.2,17.4 	"/>
	<polygon fill="#E5D8B2" points="589.3,16.6 571.4,13.8 577.8,16.6 	"/>
	<polygon fill="#E7DAB2" points="605.7,22.6 589.3,16.6 595.4,20.8 	"/>
	<polygon fill="#D9D3A1" points="621.3,33.9 605.7,22.6 610.4,29.5 	"/>
	<polygon fill="#D0CA9F" points="635.8,46.7 621.3,33.9 625.8,41.4 	"/>
	<polygon fill="#383C36" points="530.1,47.8 524.5,41.7 523.1,44.2 	"/>
	<polygon fill="#483D38" points="534.6,44.8 531,40.3 527.4,40.4 	"/>
	<polygon fill="#4A4646" points="519.1,61.1 510,53.9 504.9,54.4 	"/>
	<polygon fill="#706556" points="524.5,51.7 514.9,47.8 521.1,47.5 	"/>
	<polygon fill="#6F6D61" points="503.7,131.2 502.2,135.7 497,128.2 	"/>
	<polygon fill="#908973" points="500.7,124 497,128.2 503.7,131.2 	"/>
	<polygon fill="#B7A785" points="503.1,118.7 498.1,118.3 500.7,124 	"/>
	<polygon fill="#AB987C" points="497,128.2 500.7,124 498.1,118.3 	"/>
	<polygon fill="#B69D7D" points="500.7,107.8 498.1,118.3 503.1,118.7 	"/>
	<polygon fill="#B6A07A" points="493.8,110.8 500.7,107.8 498.1,118.3 	"/>
	<polygon fill="#D2BA8F" points="496,98.6 500.7,107.8 493.8,110.8 	"/>
	<polygon fill="#AA9D7F" points="501.7,98.4 500.7,107.8 503.7,102.9 	"/>
	<polygon fill="#B2A07C" points="496,98.6 501.7,98.4 500.7,107.8 	"/>
	<polygon fill="#BEA481" points="496,79.9 496,98.6 492.1,89.7 	"/>
	<polygon fill="#C6B791" points="501.7,98.4 496,79.9 496,98.6 	"/>
	<polygon fill="#AD9A7C" points="504.9,90.8 496,79.9 501.7,98.4 	"/>
	<polygon fill="#AF9872" points="505.2,81.9 496,79.9 504.9,90.8 	"/>
	<polygon fill="#847A57" points="500.7,62 496,79.9 493.8,69.2 	"/>
	<polygon fill="#40393A" points="512.4,70.3 505.2,81.9 510.7,77.2 	"/>
	<polygon fill="#948067" points="496,79.9 504.9,72.5 505.2,81.9 	"/>
	<polygon fill="#4D4548" points="512.4,70.3 504.9,72.5 505.2,81.9 	"/>
	<polygon fill="#A09375" points="500.7,62 504.9,72.5 496,79.9 	"/>
	<polygon fill="#262A36" points="512.4,70.3 519.1,61.1 517.4,66.9 	"/>
	<polygon fill="#554A42" points="510.7,62 512.4,70.3 519.1,61.1 	"/>
	<polygon fill="#695C50" points="504.9,72.5 510.7,62 512.4,70.3 	"/>
	<polygon fill="#968C70" points="500.7,62 510.7,62 504.9,72.5 	"/>
	<polygon fill="#8D8060" points="504.9,54.4 510.7,62 519.1,61.1 	"/>
	<polygon fill="#978467" points="500.7,62 504.9,54.4 510.7,62 	"/>
	<polygon fill="#CEBA8F" points="503.7,48.9 504.9,54.4 500.7,62 	"/>
	<polygon fill="#1E1C20" points="519.1,61.1 522.1,55.6 526.8,57 	"/>
	<polygon fill="#212425" points="529.3,52 522.1,55.6 526.8,57 	"/>
	<polygon fill="#AD9B77" points="504.9,54.4 511.7,44.2 503.7,48.9 	"/>
	<polygon fill="#8A7D61" points="514.9,47.8 511.7,44.2 504.9,54.4 	"/>
	<polygon fill="#928066" points="510,53.9 514.9,47.8 504.9,54.4 	"/>
	<polygon fill="#887B62" points="522.1,55.6 510,53.9 519.1,61.1 	"/>
	<polygon fill="#706556" points="514.9,47.8 522.1,55.6 510,53.9 	"/>
	<polygon fill="#BEA883" points="511.7,44.2 526.8,29.5 516.4,34 	"/>
	<polygon fill="#A09074" points="514.9,47.8 526.8,29.5 511.7,44.2 	"/>
	<polygon fill="#94816A" points="521.1,47.5 523.1,44.2 514.9,47.8 	"/>
	<polygon fill="#877A5B" points="522.1,55.6 524.5,51.7 514.9,47.8 	"/>
	<polygon fill="#202124" points="529.3,52 530.1,47.8 524.5,51.7 	"/>
	<polygon fill="#473D40" points="522.1,55.6 529.3,52 524.5,51.7 	"/>
	<polygon fill="#8A806A" points="521.1,47.5 530.1,47.8 524.5,51.7 	"/>
	<polygon fill="#121316" points="538.5,49.5 530.1,47.8 529.3,52 	"/>
	<polygon fill="#9F8964" points="521.1,47.5 523.1,44.2 530.1,47.8 	"/>
	<polygon fill="#9A8265" points="526.8,29.5 524.5,41.7 514.9,47.8 	"/>
	<polygon fill="#7A664E" points="523.1,44.2 524.5,41.7 514.9,47.8 	"/>
	<polygon fill="#958060" points="526.8,29.5 527.4,40.4 524.5,41.7 	"/>
	<polygon fill="#6F6855" points="530.1,47.8 527.4,40.4 524.5,41.7 	"/>
	<polygon fill="#7F6B56" points="534.6,44.8 530.1,47.8 527.4,40.4 	"/>
	<polygon fill="#262023" points="543.3,43.7 530.1,47.8 538.5,49.5 	"/>
	<polygon fill="#2A2227" points="534.6,44.8 530.1,47.8 543.3,43.7 	"/>
	<polygon fill="#A7916E" points="526.8,29.5 531,40.3 527.4,40.4 	"/>
	<polygon fill="#C0A987" points="532.6,22.3 526.8,29.5 535.7,26 	"/>
	<polygon fill="#1E1E1B" points="558.3,40.4 543.3,43.7 552,44.2 	"/>
	<polygon fill="#302930" points="531,40.3 543.3,43.7 534.6,44.8 	"/>
	<polygon fill="#201C1C" points="545.2,37.6 543.3,43.7 558.3,40.4 	"/>
	<polygon fill="#17131A" points="572.9,41.7 558.3,40.4 566.3,43.4 	"/>
	<polygon fill="#241C21" points="545.2,37.6 554.4,35 558.3,40.4 	"/>
	<polygon fill="#252126" points="566.3,34 558.3,40.4 572.9,41.7 	"/>
	<polygon fill="#191619" points="588.3,45.8 572.9,41.7 579.5,45.8 	"/>
	<polygon fill="#24222C" points="606.6,57 600,49.9 595.6,52.8 	"/>
	<polygon fill="#252122" points="588.3,45.8 600,49.9 595.6,52.8 	"/>
	<polygon fill="#272027" points="572.9,41.7 581.3,39.8 588.3,45.8 	"/>
	<polygon fill="#362F2E" points="554.4,35 566.3,34 558.3,40.4 	"/>
	<polygon fill="#4B3D3A" points="531,40.3 545.2,37.6 543.3,43.7 	"/>
	<polygon fill="#29272C" points="581.3,39.8 576.3,35 572.9,41.7 	"/>
	<polygon fill="#2F2C2C" points="566.3,34 576.3,35 572.9,41.7 	"/>
	<polygon fill="#3E3637" points="588.3,45.8 594.1,42.8 600,49.9 	"/>
	<polygon fill="#302D32" points="581.3,39.8 594.1,42.8 588.3,45.8 	"/>
	<polygon fill="#7D6B5C" points="531,40.3 533.9,31.8 526.8,29.5 	"/>
	<polygon fill="#C5B291" points="543.1,20.8 535.7,26 532.6,22.3 	"/>
	<polygon fill="#AE9D77" points="533.9,31.8 535.7,26 526.8,29.5 	"/>
	<polygon fill="#E4DDBC" points="543.1,20.8 560.2,17.4 550.3,15.4 	"/>
	<polygon fill="#E5D8B2" points="577.8,16.6 560.2,17.4 571.4,13.8 	"/>
	<polygon fill="#E6D9AE" points="595.4,20.8 577.8,16.6 589.3,16.6 	"/>
	<polygon fill="#DFCA9D" points="610.4,29.5 605.7,22.6 595.4,20.8 	"/>
	<polygon fill="#DFCA9D" points="625.8,41.4 610.4,29.5 621.3,33.9 	"/>
	<polygon fill="#5D5C4F" points="576.3,35 585.5,35 581.3,39.8 	"/>
	<polygon fill="#675E55" points="594.1,42.8 585.5,35 581.3,39.8 	"/>
	<polygon fill="#3C3438" points="600,49.9 601.1,40.6 594.1,42.8 	"/>
	<polygon fill="#3B322C" points="606.6,57 607.5,49.3 600,49.9 	"/>
	<polygon fill="#4E4145" points="612.7,67.3 622.3,54.4 606.6,57 	"/>
	<polygon fill="#AD9672" points="635.8,46.7 625.8,41.4 622.3,54.4 	"/>
	<polygon fill="#776052" points="607.5,49.3 613.9,51.1 606.6,57 	"/>
	<polygon fill="#745F52" points="622.3,54.4 613.9,51.1 606.6,57 	"/>
	<polygon fill="#8F7A62" points="625.8,41.4 622.3,54.4 613.9,51.1 	"/>
	<polygon fill="#B19A79" points="610.4,29.5 614.5,37.6 625.8,41.4 	"/>
	<polygon fill="#9A8A66" points="613.9,51.1 614.5,37.6 625.8,41.4 	"/>
	<polygon fill="#554F43" points="601.1,40.6 607.5,49.3 600,49.9 	"/>
	<polygon fill="#846E53" points="614.5,37.6 613.9,51.1 607.5,49.3 	"/>
	<polygon fill="#665950" points="601.1,40.6 607.5,40.3 607.5,49.3 	"/>
	<polygon fill="#927C69" points="614.5,37.6 607.5,40.3 607.5,49.3 	"/>
	<polygon fill="#9C866D" points="610.4,29.5 607.5,40.3 614.5,37.6 	"/>
	<polygon fill="#A49675" points="601.1,40.6 610.4,29.5 607.5,40.3 	"/>
	<polygon fill="#756956" points="594.1,42.8 595.4,35.1 601.1,40.6 	"/>
	<polygon fill="#867862" points="610.4,29.5 601.1,32.8 601.1,40.6 	"/>
	<polygon fill="#7F6C56" points="585.5,35 595.4,35.1 594.1,42.8 	"/>
	<polygon fill="#8C7863" points="600,26.6 595.6,29.5 595.4,35.1 	"/>
	<polygon fill="#867862" points="601.1,32.8 595.4,35.1 601.1,40.6 	"/>
	<polygon fill="#B59F80" points="600,26.6 601.1,32.8 595.4,35.1 	"/>
	<polygon fill="#C6B18E" points="595.4,20.8 600,26.6 610.4,29.5 	"/>
	<polygon fill="#C4AE80" points="601.1,32.8 610.4,29.5 600,26.6 	"/>
	<polygon fill="#B7AA85" points="595.4,20.8 595.6,29.5 600,26.6 	"/>
	<polygon fill="#7E694F" points="545.2,37.6 533.9,31.8 531,40.3 	"/>
	<polygon fill="#B4A27D" points="535.7,26 543.3,28.3 543.1,20.8 	"/>
	<polygon fill="#A38D74" points="533.9,31.8 543.3,28.3 535.7,26 	"/>
	<polygon fill="#9A8766" points="545.2,37.6 543.3,28.3 533.9,31.8 	"/>
	<polygon fill="#A49374" points="543.1,20.8 553.2,24.5 543.3,28.3 	"/>
	<polygon fill="#C7B384" points="560.2,17.4 553.2,24.5 543.1,20.8 	"/>
	<polygon fill="#B39E7D" points="545.2,37.6 551.7,29.7 543.3,28.3 	"/>
	<polygon fill="#B09B7A" points="553.2,24.5 551.7,29.7 543.3,28.3 	"/>
	<polygon fill="#5F5847" points="554.4,35 551.7,29.7 545.2,37.6 	"/>
	<polygon fill="#AB9C76" points="553.2,24.5 559,29.5 551.7,29.7 	"/>
	<polygon fill="#6F6252" points="554.4,35 559,29.5 566.3,34 	"/>
	<polygon fill="#7C7158" points="554.4,35 559,29.5 551.7,29.7 	"/>
	<polygon fill="#B6A07F" points="553.2,24.5 559.6,23.4 559,29.5 	"/>
	<polygon fill="#AD9B75" points="560.2,17.4 559.6,23.4 553.2,24.5 	"/>
	<polygon fill="#968166" points="566.3,34 559.6,23.4 559,29.5 	"/>
	<polygon fill="#B3A37A" points="560.2,17.4 567.7,20.2 577.8,16.6 	"/>
	<polygon fill="#A89577" points="559.6,23.4 567.7,20.2 560.2,17.4 	"/>
	<polygon fill="#A69678" points="566.3,34 567.7,20.2 559.6,23.4 	"/>
	<polygon fill="#675F53" points="576.3,35 572.3,27.1 566.3,34 	"/>
	<polygon fill="#696152" points="581.8,25.9 576.3,35 585.5,35 	"/>
	<polygon fill="#97846B" points="595.6,29.5 585.5,35 595.4,35.1 	"/>
	<polygon fill="#7A6E5F" points="595.4,20.8 585.5,35 595.6,29.5 	"/>
	<polygon fill="#B39D80" points="578.7,21.4 567.7,20.2 577.8,16.6 	"/>
	<polygon fill="#BDA582" points="595.4,20.8 586.6,23.4 577.8,16.6 	"/>
	<polygon fill="#BFAA84" points="578.7,21.4 586.6,23.4 577.8,16.6 	"/>
	<polygon fill="#897966" points="595.4,20.8 585.5,35 586.6,23.4 	"/>
	<polygon fill="#998A6B" points="581.8,25.9 586.6,23.4 585.5,35 	"/>
	<polygon fill="#B7A882" points="578.7,21.4 581.8,25.9 586.6,23.4 	"/>
	<polygon fill="#97846C" points="576.3,35 578.7,21.4 581.8,25.9 	"/>
	<polygon fill="#95886E" points="572.3,27.1 578.7,21.4 576.3,35 	"/>
	<polygon fill="#8C7C67" points="566.3,34 570.1,23.6 572.3,27.1 	"/>
	<polygon fill="#C4AD85" points="578.7,21.4 572.3,27.1 570.1,23.6 	"/>
	<polygon fill="#A99374" points="567.7,20.2 570.1,23.6 566.3,34 	"/>
	<polygon fill="#B8A27F" points="570.1,23.6 578.7,21.4 567.7,20.2 	"/>
	<polygon fill="#1D1C23" points="533.9,447.9 552.2,444.5 542,478.4 	"/>
	<polygon fill="#29262B" points="552.2,420 552.2,444.5 533.9,447.9 	"/>
	<polygon fill="#27242A" points="583.3,438.1 567.7,443.2 552.2,420 	"/>
	<polygon fill="#161620" points="552.2,444.5 565.6,451.1 542,478.4 	"/>
	<polygon fill="#221E24" points="583.3,438.1 576.9,448.5 567.7,443.2 	"/>
	<polygon fill="#322A27" points="581.4,463.6 583.3,438.1 576.9,448.5 	"/>
	<polygon fill="#605551" points="581.7,481.3 581.4,463.6 577.8,474.1 	"/>
	<polygon fill="#584A42" points="576.9,448.5 576.9,462.8 581.4,463.6 	"/>
	<polygon fill="#59514C" points="577.8,474.1 576.9,462.8 581.4,463.6 	"/>
	<polygon fill="#39353A" points="576.9,448.5 570.2,460.8 576.9,462.8 	"/>
	<polygon fill="#272429" points="567.7,443.2 565.6,451.1 576.9,448.5 	"/>
	<polygon fill="#252227" points="570.2,460.8 576.9,448.5 565.6,451.1 	"/>
	<polygon fill="#1A1720" points="552.2,444.5 567.7,443.2 565.6,451.1 	"/>
	<polygon fill="#281C1F" points="552.2,420 567.7,443.2 552.2,444.5 	"/>
	<polygon fill="#38333A" points="581.7,481.3 581.7,493.7 577.8,500.1 	"/>
	<polygon fill="#403938" points="577.8,474.1 577.8,500.1 581.7,481.3 	"/>
	<polygon fill="#363439" points="570.2,460.8 565.6,476.1 565.6,451.1 	"/>
	<polygon fill="#403B3F" points="577.8,474.1 570.2,460.8 576.9,462.8 	"/>
	<polygon fill="#1C1922" points="565.6,476.1 559.2,464.6 565.6,451.1 	"/>
	<polygon fill="#1F1C26" points="542,478.4 559.2,464.6 565.6,451.1 	"/>
	<polygon fill="#2A262A" points="548.9,491.7 548.3,502.4 542,478.4 	"/>
	<polygon fill="#27222D" points="551.3,518.9 548.3,502.4 552.9,508.5 	"/>
	<polygon fill="#232027" points="542,478.4 553.8,479.8 548.9,491.7 	"/>
	<polygon fill="#1C1922" points="559.2,464.6 553.8,479.8 542,478.4 	"/>
	<polygon fill="#2A272A" points="565.6,476.1 553.8,479.8 559.2,464.6 	"/>
	<polygon fill="#1D1C21" points="548.9,491.7 562.4,489.3 553.8,479.8 	"/>
	<polygon fill="#25212A" points="565.6,476.1 562.4,489.3 553.8,479.8 	"/>
	<polygon fill="#2E2A31" points="577.8,474.1 571.2,485 577.8,500.1 	"/>
	<polygon fill="#2C2A2D" points="570.2,460.8 565.6,476.1 577.8,474.1 	"/>
	<polygon fill="#322E34" points="571.2,485 565.6,476.1 577.8,474.1 	"/>
	<polygon fill="#2E2C31" points="562.4,489.3 571.2,485 565.6,476.1 	"/>
	<polygon fill="#2A282E" points="548.9,491.7 556.3,499.2 562.4,489.3 	"/>
	<polygon fill="#15151F" points="569.2,496.1 571.2,485 577.8,500.1 	"/>
	<polygon fill="#29272D" points="562.4,489.3 569.2,496.1 571.2,485 	"/>
	<polygon fill="#2C282F" points="556.3,499.2 569.2,496.1 562.4,489.3 	"/>
	<polygon fill="#1F1E29" points="577.5,519.7 577.5,512.3 571,519.7 	"/>
	<polygon fill="#38333A" points="581.7,493.7 581.4,505.5 577.8,500.1 	"/>
	<polygon fill="#2E262D" points="548.3,502.4 556.3,499.2 548.9,491.7 	"/>
	<polygon fill="#2D2A2F" points="552.9,508.5 556.3,499.2 548.3,502.4 	"/>
	<polygon fill="#2A282F" points="569.2,496.1 565.1,503.9 556.3,499.2 	"/>
	<polygon fill="#322D35" points="552.9,508.5 560.8,512.3 551.3,518.9 	"/>
	<polygon fill="#29262F" points="565.1,503.9 552.9,508.5 556.3,499.2 	"/>
	<polygon fill="#1E202D" points="577.8,500.1 565.1,503.9 569.2,496.1 	"/>
	<polygon fill="#131423" points="581.4,505.5 577.5,512.3 577.8,500.1 	"/>
	<polygon fill="#121523" points="565.1,503.9 577.5,512.3 577.8,500.1 	"/>
	<polygon fill="#121523" points="577.5,519.7 581.4,516 577.5,512.3 	"/>
	<polygon fill="#181621" points="581.4,505.5 581.4,516 577.5,512.3 	"/>
	<polygon fill="#13121D" points="578.5,527.9 581.4,516 577.5,519.7 	"/>
	<polygon fill="#1B1C27" points="560.8,512.3 565.1,503.9 552.9,508.5 	"/>
	<polygon fill="#0F111F" points="577.5,512.3 560.8,512.3 565.1,503.9 	"/>
	<polygon fill="#0F111F" points="571,519.7 577.5,512.3 560.8,512.3 	"/>
	<polygon fill="#2C272F" points="551.3,518.9 554.4,540.5 563.6,537.8 	"/>
	<polygon fill="#11111D" points="571,519.7 551.3,518.9 560.8,512.3 	"/>
	<polygon fill="#121522" points="578.5,527.9 577.5,519.7 571,519.7 	"/>
	<polygon fill="#1A1721" points="551.3,518.9 565.1,526.4 571,519.7 	"/>
	<polygon fill="#35363B" points="578.5,527.9 576.3,544.9 570.2,534.5 	"/>
	<polygon fill="#141626" points="571,519.7 570.2,534.5 578.5,527.9 	"/>
	<polygon fill="#14141F" points="565.1,526.4 563.6,537.8 551.3,518.9 	"/>
	<polygon fill="#171826" points="571,519.7 565.1,526.4 570.2,534.5 	"/>
	<polygon fill="#2C282F" points="554.4,540.5 553.8,561.9 563.6,537.8 	"/>
	<polygon fill="#171725" points="570.2,534.5 563.6,537.8 565.1,526.4 	"/>
	<polygon fill="#393940" points="576.3,544.9 575.4,558.5 570.2,534.5 	"/>
	<polygon fill="#25232E" points="553.8,561.9 568,554.2 563.6,537.8 	"/>
	<polygon fill="#1C1B26" points="570.2,534.5 568,554.2 563.6,537.8 	"/>
	<polygon fill="#33333C" points="575.4,558.5 570.2,534.5 568,554.2 	"/>
	<polygon fill="#2F2E2F" points="553.8,561.9 549.9,588.3 557.4,575.8 	"/>
	<polygon fill="#2E2A33" points="568,554.2 557.4,575.8 553.8,561.9 	"/>
	<polygon fill="#3F3C3C" points="549.9,588.3 544.3,600.9 549.9,597.9 	"/>
	<polygon fill="#201F29" points="541.5,609.8 544.3,600.9 549.9,597.9 	"/>
	<polygon fill="#2C2C34" points="549.9,605.6 543.5,607.1 549.9,597.9 	"/>
	<polygon fill="#1B1B2A" points="548.3,615.1 549.9,605.6 543.5,607.1 	"/>
	<polygon fill="#23222E" points="557.4,575.8 561.6,586.4 549.9,588.3 	"/>
	<polygon fill="#36383F" points="575.4,558.5 574.4,579.2 568,554.2 	"/>
	<polygon fill="#22232E" points="557.4,575.8 561.6,586.4 568,554.2 	"/>
	<polygon fill="#33333A" points="574.4,579.2 571.7,589.9 568,554.2 	"/>
	<polygon fill="#232532" points="561.6,586.4 571.7,589.9 568,554.2 	"/>
	<polygon fill="#464648" points="574.4,579.2 576.9,603.9 571.7,589.9 	"/>
	<polygon fill="#323337" points="561.6,586.4 549.9,597.9 549.9,588.3 	"/>
	<polygon fill="#232733" points="571.7,589.9 563.6,601.8 561.6,586.4 	"/>
	<polygon fill="#282533" points="549.9,597.9 563.6,601.8 561.6,586.4 	"/>
	<polygon fill="#262630" points="549.9,605.6 563.6,601.8 549.9,597.9 	"/>
	<polygon fill="#1E1F2A" points="571.7,589.9 573.2,605.6 563.6,601.8 	"/>
	<polygon fill="#252430" points="549.9,605.6 561.6,610.3 548.3,615.1 	"/>
	<polygon fill="#21222E" points="560.9,620.1 561.6,610.3 548.3,615.1 	"/>
	<polygon fill="#252631" points="563.6,601.8 561.6,610.3 549.9,605.6 	"/>
	<polygon fill="#0D0E15" points="548.3,615.1 541.5,618.6 549.9,622.6 	"/>
	<polygon fill="#2A2A39" points="560.9,620.1 549.9,622.6 548.3,615.1 	"/>
	<polygon fill="#1E222D" points="549.9,633.5 549.9,622.6 560.9,620.1 	"/>
	<polygon fill="#25252F" points="549.9,643.3 549.9,633.5 558.1,637.2 	"/>
	<polygon fill="#32323C" points="560.9,620.1 558.1,637.2 549.9,633.5 	"/>
	<polygon fill="#1C1D2A" points="561.6,610.3 573.2,605.6 563.6,601.8 	"/>
	<polygon fill="#32333D" points="576.9,603.9 573.2,605.6 571.7,589.9 	"/>
	<polygon fill="#3E3E44" points="580.4,618.9 576.9,603.9 573.2,605.6 	"/>
	<polygon fill="#20202C" points="549.9,643.3 552.7,646.1 558.1,637.2 	"/>
	<polygon fill="#2E3139" points="568,638.4 552.7,646.1 558.1,637.2 	"/>
	<polygon fill="#252634" points="578.5,637.2 568,638.4 574.3,633.5 	"/>
	<polygon fill="#1A1D28" points="587.5,636 578.5,637.2 581.3,630.9 	"/>
	<polygon fill="#66615D" points="580.4,618.9 586.5,626.8 587.5,636 	"/>
	<polygon fill="#27252E" points="581.3,630.9 580.4,618.9 587.5,636 	"/>
	<polygon fill="#1F2431" points="573.2,605.6 571.2,621.5 561.6,610.3 	"/>
	<polygon fill="#424046" points="580.4,618.9 571.2,621.5 573.2,605.6 	"/>
	<polygon fill="#44464A" points="581.3,630.9 580.4,618.9 571.2,621.5 	"/>
	<polygon fill="#252833" points="560.9,620.1 571.2,621.5 561.6,610.3 	"/>
	<polygon fill="#2F3239" points="558.1,637.2 571.2,621.5 560.9,620.1 	"/>
	<polygon fill="#252833" points="574.3,633.5 571.2,621.5 568,638.4 	"/>
	<polygon fill="#262930" points="571.2,621.5 568,638.4 558.1,637.2 	"/>
	<polygon fill="#333747" points="578.5,637.2 581.3,630.9 571.2,621.5 	"/>
	<polygon fill="#333747" points="574.3,633.5 578.5,637.2 571.2,621.5 	"/>
	<polygon fill="#262A32" points="552.7,646.1 553.7,656.3 561.6,650.3 	"/>
	<polygon fill="#242B31" points="566.6,645.2 571.7,650.3 561.6,650.3 	"/>
	<polygon fill="#242B31" points="553.7,656.3 571.7,650.3 561.6,650.3 	"/>
	<polygon fill="#101724" points="575.4,655.6 571.7,650.3 553.7,656.3 	"/>
	<polygon fill="#3D4345" points="568,638.4 566.6,645.2 552.7,646.1 	"/>
	<polygon fill="#21272F" points="561.6,650.3 566.6,645.2 552.7,646.1 	"/>
	<polygon fill="#4C4B4D" points="568,638.4 578.5,641.6 578.5,637.2 	"/>
	<polygon fill="#15161D" points="586.6,641.6 583,643.3 578.5,637.2 	"/>
	<polygon fill="#161722" points="592.8,651.2 589.1,653.3 586.6,641.6 	"/>
	<polygon fill="#242630" points="575.4,655.6 589.1,653.3 589.7,656.3 	"/>
	<polygon fill="#15161D" points="583,643.3 583.9,648.8 589.1,653.3 	"/>
	<polygon fill="#1E1E28" points="586.6,641.6 589.1,653.3 583,643.3 	"/>
	<polygon fill="#2B2F3D" points="571.7,650.3 589.1,653.3 575.4,655.6 	"/>
	<polygon fill="#3D3C48" points="566.6,645.2 578.5,641.6 568,638.4 	"/>
	<polygon fill="#6B655B" points="578.5,641.6 583,643.3 578.5,637.2 	"/>
	<polygon fill="#2A2D36" points="566.6,645.2 571.7,650.3 583.9,648.8 	"/>
	<polygon fill="#313545" points="583.9,648.8 589.1,653.3 571.7,650.3 	"/>
	<polygon fill="#434445" points="578.5,641.6 583.9,648.8 566.6,645.2 	"/>
	<polygon fill="#626459" points="583,643.3 583.9,648.8 578.5,641.6 	"/>
	<polygon fill="#55595A" points="587.5,636 592.8,651.2 586.6,641.6 	"/>
	<polygon fill="#323344" points="578.5,637.2 586.6,641.6 587.5,636 	"/>
	<polygon fill="#10121C" points="620.2,416.6 610.9,443.2 583.3,438.1 	"/>
	<polygon fill="#14121C" points="581.4,463.6 594.8,449.3 583.3,438.1 	"/>
	<polygon fill="#22212A" points="607.1,472.4 601.7,456.8 610.9,443.2 	"/>
	<polygon fill="#181423" points="594.8,449.3 610.9,443.2 583.3,438.1 	"/>
	<polygon fill="#191723" points="601.7,456.8 594.8,449.3 610.9,443.2 	"/>
	<polygon fill="#27232E" points="590.5,476.2 586.3,485.8 595.7,494.3 	"/>
	<polygon fill="#252429" points="607.1,472.4 606.3,493.7 601.7,479 	"/>
	<polygon fill="#1A1926" points="601.7,456.8 607.1,472.4 601.7,479 	"/>
	<polygon fill="#14131E" points="594.8,449.3 581.4,463.6 601.7,456.8 	"/>
	<polygon fill="#12131E" points="601.7,479 590.5,476.2 601.7,456.8 	"/>
	<polygon fill="#12131E" points="581.4,463.6 590.5,476.2 601.7,456.8 	"/>
	<polygon fill="#130E1A" points="581.7,481.3 590.5,476.2 581.4,463.6 	"/>
	<polygon fill="#100C19" points="581.4,505.5 586.3,485.8 581.7,481.3 	"/>
	<polygon fill="#1A1721" points="590.5,476.2 586.3,485.8 581.7,481.3 	"/>
	<polygon fill="#1A1827" points="601.7,479 595.7,494.3 590.5,476.2 	"/>
	<polygon fill="#181620" points="606.3,493.7 600.7,512.3 601.7,479 	"/>
	<polygon fill="#131423" points="595.7,494.3 600.7,512.3 601.7,479 	"/>
	<polygon fill="#1C1A22" points="581.4,505.5 595.7,494.3 586.3,485.8 	"/>
	<polygon fill="#080615" points="581.4,516 595.7,494.3 581.4,505.5 	"/>
	<polygon fill="#06060E" points="600.7,512.3 595.7,494.3 591.6,525 	"/>
	<polygon fill="#0B0B15" points="581.4,516 595.7,494.3 591.6,525 	"/>
	<polygon fill="#0B0B16" points="578.5,527.9 591.6,525 581.4,516 	"/>
	<polygon fill="#151422" points="597.8,540.5 591.6,525 589.6,549.3 	"/>
	<polygon fill="#0C0B18" points="576.3,544.9 591.6,525 578.5,527.9 	"/>
	<polygon fill="#090914" points="575.4,558.5 576.3,544.9 591.6,525 	"/>
	<polygon fill="#0D0C19" points="589.6,549.3 575.4,558.5 591.6,525 	"/>
	<polygon fill="#161623" points="597.8,540.5 597.8,567.6 589.6,549.3 	"/>
	<polygon fill="#0E0C1A" points="575.4,558.5 574.4,579.2 589.6,549.3 	"/>
	<polygon fill="#141521" points="597.8,567.6 598.7,586.9 585,582.9 	"/>
	<polygon fill="#0D0E1B" points="589.6,549.3 597.8,567.6 585,582.9 	"/>
	<polygon fill="#0E101C" points="574.4,579.2 585,582.9 589.6,549.3 	"/>
	<polygon fill="#070919" points="576.9,603.9 585,582.9 574.4,579.2 	"/>
	<polygon fill="#161723" points="598.7,586.9 602.1,600.9 588.5,597 	"/>
	<polygon fill="#1E1C2D" points="608.9,611.4 602.1,600.9 597.8,611.4 	"/>
	<polygon fill="#13131F" points="585,582.9 598.7,586.9 588.5,597 	"/>
	<polygon fill="#0A0D1D" points="576.9,603.9 588.5,597 585,582.9 	"/>
	<polygon fill="#131624" points="602.1,600.9 597.8,611.4 588.5,597 	"/>
	<polygon fill="#111122" points="580.4,618.9 588.5,597 576.9,603.9 	"/>
	<polygon fill="#141520" points="586.5,626.8 597.8,611.4 580.4,618.9 	"/>
	<polygon fill="#161724" points="588.5,597 597.8,611.4 580.4,618.9 	"/>
	<polygon fill="#161625" points="586.5,626.8 601.2,618.2 597.8,611.4 	"/>
	<polygon fill="#1F2231" points="608.9,611.4 608.9,619.1 601.2,618.2 	"/>
	<polygon fill="#161726" points="597.8,611.4 601.2,618.2 608.9,611.4 	"/>
	<polygon fill="#353C44" points="608.9,619.1 614.6,624.9 602.1,627.4 	"/>
	<polygon fill="#1C1E2D" points="601.2,618.2 602.1,627.4 608.9,619.1 	"/>
	<polygon fill="#141320" points="586.5,626.8 602.1,627.4 587.5,636 	"/>
	<polygon fill="#1B1C28" points="614.6,624.9 603.9,630.9 602.1,627.4 	"/>
	<polygon fill="#161721" points="587.5,636 603.9,630.9 602.1,627.4 	"/>
	<polygon fill="#10131D" points="606.4,635.3 603.9,630.9 587.5,636 	"/>
	<polygon fill="#191B24" points="614.6,624.9 617.3,630 603.9,630.9 	"/>
	<polygon fill="#3C3E3C" points="618.4,634 617.3,630 606.4,635.3 	"/>
	<polygon fill="#10131D" points="603.9,630.9 606.4,635.3 617.3,630 	"/>
	<polygon fill="#42383B" points="133.1,410.3 123.4,428.4 152.9,413.3 	"/>
	<polygon fill="#352A32" points="142.5,394.7 133.1,410.3 152.9,413.3 	"/>
	<polygon fill="#352B34" points="154.5,391.6 152.9,413.3 142.5,394.7 	"/>
	<polygon fill="#100B18" points="142.5,394.7 131.1,397.6 133.1,410.3 	"/>
	<polygon fill="#2D2225" points="131.1,311.6 135.1,372.5 172.6,388.9 	"/>
	<polygon fill="#0C0612" points="142.5,394.7 135.1,372.5 154.5,391.6 	"/>
	<polygon fill="#110E1A" points="172.6,388.9 154.5,391.6 135.1,372.5 	"/>
	<polygon fill="#231E27" points="123.4,428.4 111.7,447.1 124.8,440.4 	"/>
	<polygon fill="#2B2629" points="86.3,471.2 105.1,467.2 111.7,447.1 	"/>
	<polygon fill="#090918" points="80.9,494.2 86.3,471.2 105.1,467.2 	"/>
	<polygon fill="#1C1820" points="152.9,413.3 124.8,440.4 123.4,428.4 	"/>
	<polygon fill="#1F1B24" points="135.1,449.8 158.5,424.7 152.9,413.3 	"/>
	<polygon fill="#17151D" points="124.8,440.4 135.1,449.8 152.9,413.3 	"/>
	<polygon fill="#17121E" points="172.6,388.9 152.9,413.3 154.5,391.6 	"/>
	<polygon fill="#83614E" points="201.7,431.7 191.6,431.5 194,416.3 	"/>
	<polygon fill="#4B4B3F" points="172.6,388.9 179,409.6 194,416.3 	"/>
	<polygon fill="#0C0914" points="165.2,459.1 191.6,431.5 194,416.3 	"/>
	<polygon fill="#191723" points="179,409.6 158.5,424.7 152.9,413.3 	"/>
	<polygon fill="#11101B" points="172.6,388.9 179,409.6 152.9,413.3 	"/>
	<polygon fill="#0D0B17" points="194,416.3 158.5,424.7 179,409.6 	"/>
	<polygon fill="#09090D" points="165.2,459.1 158.5,424.7 194,416.3 	"/>
	<polygon fill="#0A0917" points="135.1,449.8 165.2,459.1 158.5,424.7 	"/>
	<polygon fill="#2B2629" points="111.7,447.1 105.1,467.2 124.8,440.4 	"/>
	<polygon fill="#100E1B" points="135.1,449.8 105.1,467.2 124.8,440.4 	"/>
	<polygon fill="#080B1C" points="165.2,459.1 136.8,484.5 135.1,449.8 	"/>
	<polygon fill="#14141E" points="105.1,467.2 123.4,474.8 135.1,449.8 	"/>
	<polygon fill="#0A0C17" points="136.8,484.5 135.1,449.8 123.4,474.8 	"/>
	<polygon fill="#12121C" points="105.1,467.2 80.9,494.2 123.4,474.8 	"/>
	<polygon fill="#0B0B19" points="136.8,484.5 122.8,501.9 123.4,474.8 	"/>
	<polygon fill="#1B1B26" points="101,502.7 107,486.2 123.4,474.8 	"/>
	<polygon fill="#12101A" points="80.9,494.2 107,486.2 123.4,474.8 	"/>
	<polygon fill="#0A0612" points="122.8,501.9 101,502.7 123.4,474.8 	"/>
	<polygon fill="#111118" points="80.9,494.2 101,502.7 107,486.2 	"/>
	<polygon fill="#0A0D18" points="122.8,501.9 112.2,520.1 101,502.7 	"/>
	<polygon fill="#151520" points="80.9,494.2 89,517.5 101,502.7 	"/>
	<polygon fill="#0A0617" points="112.2,520.1 89,517.5 101,502.7 	"/>
	<polygon fill="#0D0B16" points="80.9,494.2 73.9,529 89,517.5 	"/>
	<polygon fill="#19151F" points="112.2,520.1 100.6,544.7 89,517.5 	"/>
	<polygon fill="#1B1B25" points="73.9,529 89,517.5 65.1,558.8 	"/>
	<polygon fill="#080C19" points="100.6,544.7 91,571.1 83.2,554.5 	"/>
	<polygon fill="#0F101A" points="89,517.5 83.2,554.5 100.6,544.7 	"/>
	<polygon fill="#080C1B" points="65.1,558.8 83.2,554.5 89,517.5 	"/>
	<polygon fill="#151620" points="91,571.1 86,598.6 81.1,582.3 	"/>
	<polygon fill="#13131E" points="65.1,558.8 57.4,582.7 65.4,571.8 	"/>
	<polygon fill="#0E1119" points="83.2,554.5 65.4,571.8 65.1,558.8 	"/>
	<polygon fill="#121122" points="91,571.1 81.1,582.3 83.2,554.5 	"/>
	<polygon fill="#11111F" points="65.4,571.8 81.1,582.3 83.2,554.5 	"/>
	<polygon fill="#171826" points="86,598.6 72.6,597.6 81.1,582.3 	"/>
	<polygon fill="#1F1F29" points="57.4,582.7 65.4,571.8 72.6,597.6 	"/>
	<polygon fill="#151624" points="81.1,582.3 72.6,597.6 65.4,571.8 	"/>
	<polygon fill="#0E1025" points="57.4,582.7 49.9,602 58.8,595.7 	"/>
	<polygon fill="#1E212E" points="72.6,597.6 58.8,595.7 57.4,582.7 	"/>
	<polygon fill="#201F2D" points="86,598.6 81.1,610.5 72.6,597.6 	"/>
	<polygon fill="#111228" points="58.8,608.5 58.8,595.7 49.9,602 	"/>
	<polygon fill="#181827" points="72.6,597.6 58.8,608.5 58.8,595.7 	"/>
	<polygon fill="#444146" points="49.9,602 43.4,613.7 58.8,608.5 	"/>
	<polygon fill="#3C3C42" points="55.6,617.7 43.4,613.7 58.8,608.5 	"/>
	<polygon fill="#242433" points="63.1,614.3 58.8,608.5 55.6,617.7 	"/>
	<polygon fill="#1E1F2C" points="72.6,597.6 71.7,614.2 81.1,610.5 	"/>
	<polygon fill="#1A1B29" points="63.1,614.3 72.6,597.6 58.8,608.5 	"/>
	<polygon fill="#181B26" points="71.7,614.2 63.1,614.3 72.6,597.6 	"/>
	<polygon fill="#2F312D" points="55.6,617.7 48.2,623.2 43.4,613.7 	"/>
	<polygon fill="#181928" points="81.1,610.5 81.1,624.3 71.7,614.2 	"/>
	<polygon fill="#141523" points="63.1,614.3 69.6,626.8 71.7,614.2 	"/>
	<polygon fill="#060619" points="48.2,623.2 63.1,614.3 55.6,617.7 	"/>
	<polygon fill="#101122" points="56.4,620.5 48.2,623.2 63.1,614.3 	"/>
	<polygon fill="#121121" points="58.4,631.8 56.4,620.5 63.1,614.3 	"/>
	<polygon fill="#161724" points="69.6,626.8 58.4,631.8 63.1,614.3 	"/>
	<polygon fill="#1C1C2D" points="81.1,624.3 86,635 77.6,636.2 	"/>
	<polygon fill="#1B1C2C" points="69.6,626.8 81.1,624.3 71.7,614.2 	"/>
	<polygon fill="#181528" points="58.4,631.8 65.7,638.8 69.6,626.8 	"/>
	<polygon fill="#20232E" points="58.4,644.3 65.7,638.8 58.4,631.8 	"/>
	<polygon fill="#151626" points="81.1,624.3 77.6,636.2 69.6,626.8 	"/>
	<polygon fill="#191C2C" points="65.7,638.8 77.6,636.2 69.6,626.8 	"/>
	<polygon fill="#262A31" points="86,642.2 86,635 77.6,636.2 	"/>
	<polygon fill="#191C2C" points="65.7,638.8 73.8,642.8 77.6,636.2 	"/>
	<polygon fill="#272933" points="86,642.2 73.8,642.8 77.6,636.2 	"/>
	<polygon fill="#27262E" points="58.4,644.3 63.1,654 64.5,645.3 	"/>
	<polygon fill="#252733" points="73.8,642.8 64.5,645.3 65.7,638.8 	"/>
	<polygon fill="#27262F" points="58.4,644.3 64.5,645.3 65.7,638.8 	"/>
	<polygon fill="#11121E" points="63.1,654 75,654.4 68.6,650.3 	"/>
	<polygon fill="#1D2129" points="86.9,654.4 79.9,649.5 75,654.4 	"/>
	<polygon fill="#1B2330" points="94.2,653 86.9,654.4 79.9,649.5 	"/>
	<polygon fill="#2D3139" points="89.6,645.3 94.2,653 79.9,649.5 	"/>
	<polygon fill="#383D48" points="86,642.2 89.6,645.3 79.9,649.5 	"/>
	<polygon fill="#20222D" points="73.8,642.8 79.9,649.5 86,642.2 	"/>
	<polygon fill="#2C2D38" points="64.5,645.3 79.9,649.5 73.8,642.8 	"/>
	<polygon fill="#141620" points="68.6,650.3 79.9,649.5 75,654.4 	"/>
	<polygon fill="#23222C" points="64.5,645.3 68.6,650.3 63.1,654 	"/>
	<polygon fill="#141620" points="79.9,649.5 64.5,645.3 68.6,650.3 	"/>
	<polygon fill="#1B202F" points="601.2,618.2 602.1,627.4 586.5,626.8 	"/>
	<polygon fill="#19181C" points="607.2,102.1 612.7,100.2 615.7,101.9 611.6,102.2 	"/>
	<polygon fill="#968F76" points="608.7,96.6 612.7,100.2 614.3,96.6 	"/>
	<polygon fill="#877E6A" points="615.7,101.9 614.3,96.6 612.7,100.2 	"/>
	<polygon fill="#736F58" points="607.2,102.1 608.7,96.6 612.7,100.2 	"/>
	<polygon fill="#C4AD7E" points="611.6,102.2 610.4,106.8 614.6,106.4 	"/>
	<polygon fill="#A48F64" points="615.7,101.9 614.6,106.4 611.6,102.2 	"/>
	<polygon fill="#CDBB86" points="611.6,102.2 610.4,106.8 607.2,102.1 	"/>
	<polygon fill="#CDBB86" points="615.7,101.9 617.3,103.6 614.6,106.4 	"/>
	<polygon fill="#968F76" points="614.3,96.6 615,97.4 616.9,99.2 615.7,101.9 	"/>
	<polygon fill="#A48F64" points="617.3,103.6 616.9,99.2 615.7,101.9 	"/>
	<polygon fill="#34292A" points="621,95.4 617.3,103.6 616.9,99.2 	"/>
	<polygon fill="#B18D62" points="605.9,168.5 613.5,171.4 629.2,195.8 	"/>
	<polygon fill="#C6AE7A" points="612.9,155.1 613.5,171.4 605.9,168.5 	"/>
	<polygon fill="#6F4E3C" points="613.5,171.4 617.5,164.7 612.9,155.4 	"/>
	<polygon fill="#634636" points="630.9,166.4 617.5,164.7 612.9,155.4 	"/>
	<polygon fill="#543B31" points="633.6,176.5 626,172.8 630.9,166.4 	"/>
	<polygon fill="#543633" points="617.5,164.7 626,172.8 630.9,166.4 	"/>
	<polygon fill="#644935" points="629.2,195.8 629.2,187.3 620.9,182.9 	"/>
	<polygon fill="#79553D" points="613.5,171.4 620.9,173.2 620.9,182.9 	"/>
	<polygon fill="#5B4039" points="617.5,164.7 620.9,173.2 613.5,171.4 	"/>
	<polygon fill="#45312E" points="620.9,173.2 626,172.8 617.5,164.7 	"/>
	<polygon fill="#341E1A" points="629.2,187.3 620.9,173.2 620.9,182.9 	"/>
	<polygon fill="#36221E" points="643.7,197.7 629.2,187.3 629.2,195.8 	"/>
	<polygon fill="#CFB381" points="702.4,167.2 706.2,178.3 701,176.5 	"/>
	<polygon fill="#AF8161" points="702.4,195.8 694.3,187.8 681.4,200.1 	"/>
	<polygon fill="#B09162" points="678,195.8 681.4,200.1 694.3,187.8 	"/>
	<polygon fill="#B79766" points="691.9,182 678,195.8 694.3,187.8 	"/>
	<polygon fill="#DDC58B" points="701,176.5 702.4,195.8 706.2,178.3 	"/>
	<polygon fill="#6A513F" points="702.4,167.2 687.4,180.5 690.6,170.3 	"/>
	<polygon fill="#130B16" points="643.7,197.7 653.3,193.5 662.3,200.1 	"/>
	<polygon fill="#1F111A" points="629.2,187.3 641.4,187 643.7,197.7 	"/>
	<polygon fill="#161119" points="626,172.8 629.2,187.3 620.9,173.2 	"/>
	<polygon fill="#201B23" points="626,172.8 641.4,187 629.2,187.3 	"/>
	<polygon fill="#060614" points="653.3,193.5 641.4,187 643.7,197.7 	"/>
	<polygon fill="#46382D" points="681.4,200.1 673,200.1 678,195.8 	"/>
	<polygon fill="#100B13" points="670.1,192.7 666.6,200.1 673,200.1 	"/>
	<polygon fill="#17141A" points="666.6,200.1 662.6,193.5 670.1,192.7 	"/>
	<polygon fill="#2B1F1F" points="673,200.1 678,195.8 670.1,192.7 	"/>
	<polygon fill="#1B141A" points="662.3,200.1 662.6,193.5 666.6,200.1 	"/>
	<polygon fill="#18151C" points="653.3,193.5 662.6,193.5 662.3,200.1 	"/>
	<polygon fill="#27191F" points="641.4,187 633.6,176.5 626,172.8 	"/>
	<polygon fill="#231E22" points="645.7,174.9 641.4,187 633.6,176.5 	"/>
	<polygon fill="#30262B" points="651.8,182 641.4,187 645.7,174.9 	"/>
	<polygon fill="#1A171C" points="653.3,193.5 651.8,182 641.4,187 	"/>
	<polygon fill="#15141F" points="662.6,193.5 651.8,182 653.3,193.5 	"/>
	<polygon fill="#151620" points="670.1,192.7 662.6,193.5 651.8,182 	"/>
	<polygon fill="#201920" points="678,195.8 679.9,185.8 670.1,192.7 	"/>
	<polygon fill="#30282D" points="691.9,182 679.9,185.8 678,195.8 	"/>
	<polygon fill="#624D41" points="691.9,182 687.4,180.5 679.9,185.8 	"/>
	<polygon fill="#A67E55" points="691.9,182 702.4,167.2 687.4,180.5 	"/>
	<polygon fill="#7B533D" points="694.3,187.8 701,176.5 702.4,195.8 	"/>
	<polygon fill="#AE885B" points="691.9,182 701,176.5 694.3,187.8 	"/>
	<polygon fill="#BD9A68" points="702.4,167.2 691.9,182 701,176.5 	"/>
	<polygon fill="#B29A6E" points="201.7,301.3 189.3,344.4 160.2,335.4 	"/>
	<polygon fill="#362D3C" points="776.2,48.4 778.7,56.4 769.9,46.1 	"/>
	<polygon fill="#060619" points="600.7,512.3 597.8,540.5 591.6,525 	"/>
</g>
</svg>
