<?xml version="1.0" encoding="utf-8"?>
<!-- Generator: Adobe Illustrator 21.1.0, SVG Export Plug-In . SVG Version: 6.00 Build 0)  -->
<svg version="1.1" id="Layer_1" xmlns="http://www.w3.org/2000/svg" xmlns:xlink="http://www.w3.org/1999/xlink" x="0px" y="0px"
	 viewBox="0 0 1700 600" style="enable-background:new 0 0 1700 600;" xml:space="preserve">
<style type="text/css">
	.st0{fill:#F42534;stroke:#FFFFFF;stroke-miterlimit:10;}
	.st1{fill:#EF3FA9;stroke:#FFFFFF;stroke-miterlimit:10;}
	.st2{fill:#0082CA;stroke:#FFFFFF;stroke-miterlimit:10;}
	.st3{fill:#99DAEA;stroke:#FFFFFF;stroke-miterlimit:10;}
	.st4{fill:#00BD70;stroke:#FFFFFF;stroke-miterlimit:10;}
	.st5{fill:#FFDD00;stroke:#FFFFFF;stroke-miterlimit:10;}
	.st6{fill:#FF9012;stroke:#FFFFFF;stroke-miterlimit:10;}
	.st7{fill:#FFFFFF;stroke:#FFFFFF;stroke-miterlimit:10;}
	.st8{fill:none;stroke:#FFFFFF;stroke-miterlimit:10;}
</style>
<polygon class="st0" points="840.8,-169.6 983.6,119.8 1303,166.2 1071.9,391.5 1126.5,709.6 840.8,559.4 555.2,709.6 609.7,391.5 
	378.6,166.2 698,119.8 "/>
<polygon class="st1" points="840.8,-72.4 955.1,159.1 1210.6,196.3 1025.7,376.5 1069.3,630.9 840.8,510.8 612.3,630.9 655.9,376.5 
	471.1,196.3 726.5,159.1 "/>
<polygon class="st2" points="840.8,5.4 932.2,190.6 1136.6,220.3 988.7,364.5 1023.6,568 840.8,471.9 658,568 692.9,364.5 
	545,220.3 749.4,190.6 "/>
<polygon class="st3" points="840.8,67.6 913.9,215.8 1077.5,239.5 959.1,354.9 987.1,517.7 840.8,440.8 694.6,517.7 722.5,354.9 
	604.2,239.5 767.7,215.8 "/>
<polygon class="st4" points="840.8,117.3 899.3,235.9 1030.1,254.9 935.5,347.2 957.8,477.4 840.8,415.9 723.8,477.4 746.2,347.2 
	651.5,254.9 782.3,235.9 "/>
<polygon class="st5" points="840.8,157.2 887.6,252 992.3,267.2 916.5,341 934.4,445.2 840.8,396 747.2,445.2 765.1,341 
	689.4,267.2 794,252 "/>
<polygon class="st6" points="840.8,189 878.2,264.9 962,277 901.4,336.1 915.7,419.5 840.8,380.1 765.9,419.5 780.2,336.1 
	719.6,277 803.4,264.9 "/>
<polygon class="st7" points="840.8,214.5 870.8,275.2 937.7,284.9 889.3,332.2 900.7,398.9 840.8,367.4 780.9,398.9 792.3,332.2 
	743.9,284.9 810.9,275.2 "/>
<line class="st8" x1="840.8" y1="214.5" x2="840.8" y2="-169.6"/>
<line class="st8" x1="937.7" y1="284.9" x2="1303" y2="166.2"/>
<line class="st8" x1="900.7" y1="398.9" x2="1126.5" y2="709.6"/>
<line class="st8" x1="780.9" y1="398.9" x2="555.2" y2="709.6"/>
<line class="st8" x1="792.3" y1="332.2" x2="609.7" y2="391.5"/>
<line class="st8" x1="743.9" y1="284.9" x2="378.6" y2="166.2"/>
<line class="st8" x1="889.3" y1="332.2" x2="1071.9" y2="391.5"/>
<line class="st8" x1="810.9" y1="275.2" x2="698" y2="119.8"/>
<line class="st8" x1="870.8" y1="275.2" x2="983.6" y2="119.8"/>
<line class="st8" x1="840.8" y1="367.4" x2="840.8" y2="559.4"/>
</svg>
