<svg id="Layer_1" data-name="Layer 1" xmlns="http://www.w3.org/2000/svg" viewBox="0 0 1000 1000"><defs><style>.cls-1{fill:#343434;opacity:0.51;}.cls-2{fill:#adad6e;}.cls-3{fill:#fcf1d3;}.cls-4{fill:#f7efdf;}.cls-5{fill:#f8f2de;}.cls-6{fill:#fef9f5;}.cls-7{fill:#f9f2ef;}.cls-8{fill:#fcf4e0;}.cls-9{fill:#f5efda;}.cls-10{fill:#eae2c5;}.cls-11{fill:#f4eecf;}.cls-12{fill:#eae3c7;}.cls-13{fill:#eaddc3;}.cls-14{fill:#cfc596;}.cls-15{fill:#e9dcb4;}.cls-16{fill:#f5e9cc;}.cls-17{fill:#e8dbb2;}.cls-18{fill:#d3c69e;}.cls-19{fill:#e4d7aa;}.cls-20{fill:#c7c0a4;}.cls-21{fill:#c8bb8f;}.cls-22{fill:#93884f;}.cls-23{fill:#e5dbb0;}.cls-24{fill:#ede1b6;}.cls-25{fill:#b8a76e;}.cls-26{fill:#9d9560;}.cls-27{fill:#a7a061;}.cls-28{fill:#beb37a;}.cls-29{fill:#beb67b;}.cls-30{fill:#c0ba86;}.cls-31{fill:#e1dbb3;}.cls-32{fill:#c1bd89;}.cls-33{fill:#c6bd87;}.cls-34{fill:#bfb984;}.cls-35{fill:#d5c895;}.cls-36{fill:#ab9f65;}.cls-37{fill:#ddd2a2;}.cls-38{fill:#c2b78b;}.cls-39{fill:#ded3a2;}.cls-40{fill:#9f9458;}.cls-41{fill:#a4a46e;}.cls-42{fill:#6c692a;}.cls-43{fill:#888c4a;}.cls-44{fill:#6f6e31;}.cls-45{fill:#c2b987;}.cls-46{fill:#746b2d;}.cls-47{fill:#525221;}.cls-48{fill:#d1c89a;}.cls-49{fill:#cbbe88;}.cls-50{fill:#9a9060;}.cls-51{fill:#bcac6e;}.cls-52{fill:#897f40;}.cls-53{fill:#55511a;}.cls-54{fill:#909146;}.cls-55{fill:#c1bf94;}.cls-56{fill:#363118;}.cls-57{fill:#3c3d1b;}.cls-58{fill:#b1a873;}.cls-59{fill:#958f54;}.cls-60{fill:#afaa6c;}.cls-61{fill:#caca97;}.cls-62{fill:#9b914d;}.cls-63{fill:#c5c29e;}.cls-64{fill:#715f27;}.cls-65{fill:#867c44;}.cls-66{fill:#544a1c;}.cls-67{fill:#bdc077;}.cls-68{fill:#5e5f27;}.cls-69{fill:#a6a163;}.cls-70{fill:#777535;}.cls-71{fill:#6e6f2c;}.cls-72{fill:#8c8840;}.cls-73{fill:#7c7a39;}.cls-74{fill:#a6b15f;}.cls-75{fill:#a79e64;}.cls-76{fill:#a2925c;}.cls-77{fill:#a09b67;}.cls-78{fill:#787840;}.cls-79{fill:#907c42;}.cls-80{fill:#a3905e;}.cls-81{fill:#88885b;}.cls-82{fill:#d0c590;}.cls-83{fill:#bab78a;}.cls-84{fill:#cec598;}.cls-85{fill:#ebdaac;}.cls-86{fill:#b1aa4a;}.cls-87{fill:#dcc77e;}.cls-88{fill:#b28231;}.cls-89{fill:#e1c388;}.cls-90{fill:#7b7846;}.cls-91{fill:#5a5424;}.cls-92{fill:#3e3718;}.cls-93{fill:#747335;}.cls-94{fill:#63501f;}.cls-95{fill:#63632a;}.cls-96{fill:#5e5c29;}.cls-97{fill:#5f5c2b;}.cls-98{fill:#5e6135;}.cls-99{fill:#7a7545;}.cls-100{fill:#6c692f;}.cls-101{fill:#a09e56;}.cls-102{fill:#665b29;}.cls-103{fill:#97985c;}.cls-104{fill:#aeae75;}.cls-105{fill:#b3ac70;}.cls-106{fill:#9b9659;}.cls-107{fill:#c7ba8d;}.cls-108{fill:#d3ca94;}.cls-109{fill:#eae1bc;}.cls-110{fill:#d7d19b;}.cls-111{fill:#d0c8a7;}.cls-112{fill:#c3b189;}.cls-113{fill:#dace9d;}.cls-114{fill:#be9e53;}.cls-115{fill:#8a6429;}.cls-116{fill:#876615;}.cls-117{fill:#6f5614;}.cls-118{fill:#957836;}.cls-119{fill:#7a6432;}.cls-120{fill:#948235;}.cls-121{fill:#aaa87b;}.cls-122{fill:#ac9f6a;}.cls-123{fill:#bdb286;}.cls-124{fill:#ded29e;}.cls-125{fill:#fde5ae;}.cls-126{fill:#d0bb75;}.cls-127{fill:#946e29;}.cls-128{fill:#725413;}.cls-129{fill:#553d18;}.cls-130{fill:#644b17;}.cls-131{fill:#dac071;}.cls-132{fill:#caaf69;}.cls-133{fill:#b99a53;}.cls-134{fill:#f2d78e;}.cls-135{fill:#bb944a;}.cls-136{fill:#b8ab52;}.cls-137{fill:#c5a357;}.cls-138{fill:#d0bb6b;}.cls-139{fill:#c9b578;}.cls-140{fill:#b6b38a;}.cls-141{fill:#b5b075;}.cls-142{fill:#b2ab6c;}.cls-143{fill:#a09b53;}.cls-144{fill:#a39c55;}.cls-145{fill:#9c944b;}.cls-146{fill:#bcb982;}.cls-147{fill:#cfc586;}.cls-148{fill:#c7c59a;}.cls-149{fill:#67683f;}.cls-150{fill:#9d9954;}.cls-151{fill:#878335;}.cls-152{fill:#878237;}.cls-153{fill:#8c9163;}.cls-154{fill:#7c804f;}.cls-155{fill:#b7b3a3;}.cls-156{fill:#fdf8e0;}.cls-157{fill:#989287;}.cls-158{fill:#908272;}.cls-159{fill:#968d80;}.cls-160{fill:#403b37;}.cls-161{fill:#484b46;}.cls-162{fill:#1e1719;}.cls-163{fill:#050404;}.cls-164{fill:#aaa99c;}.cls-165{fill:#b5bb88;}.cls-166{fill:#686a21;}.cls-167{fill:#80823c;}.cls-168{fill:#cec483;}.cls-169{fill:#cbbf86;}.cls-170{fill:#ddd095;}.cls-171{fill:#ddd5a9;}.cls-172{fill:#bdc2a1;}.cls-173{fill:#c0c39f;}.cls-174{fill:#9f9f66;}.cls-175{fill:#d2c491;}.cls-176{fill:#85806d;}.cls-177{fill:#a5a586;}.cls-178{fill:#aea989;}.cls-179{fill:#dad6c6;}.cls-180{fill:#e8e4d7;}.cls-181{fill:#e2d9bb;}.cls-182{fill:#c8b16c;}.cls-183{fill:#d0cda8;}.cls-184{fill:#c1b988;}.cls-185{fill:#c2bd93;}.cls-186{fill:#d5d5be;}.cls-187{fill:#ece6cd;}.cls-188{fill:#e8dcbe;}.cls-189{fill:#e4dfcf;}.cls-190{fill:#eee0c9;}.cls-191{fill:#eae7d2;}.cls-192{fill:#e9ddbc;}.cls-193{fill:#e4d5ad;}.cls-194{fill:#d6d1ac;}.cls-195{fill:#e4d3bb;}.cls-196{fill:#d1c689;}.cls-197{fill:#e5d2a6;}.cls-198{fill:#d9d2a2;}.cls-199{fill:#d2c3a1;}.cls-200{fill:#9b8c61;}.cls-201{fill:#ac997a;}.cls-202{fill:#eee2c5;}.cls-203{fill:#f1dfbc;}.cls-204{fill:#f9edc6;}.cls-205{fill:#fdf7f3;}.cls-206{fill:#f4eed7;}.cls-207{fill:#fefbe3;}.cls-208{fill:#e8dcb5;}.cls-209{fill:#ccc8b6;}.cls-210{fill:#e9dca1;}.cls-211{fill:#cdcc92;}.cls-212{fill:#3e3117;}.cls-213{fill:#876f47;}.cls-214{fill:#574623;}.cls-215{fill:#ead9c6;}.cls-216{fill:#573c1a;}.cls-217{fill:#7e633f;}.cls-218{fill:#f2e2b9;}.cls-219{fill:#e4d88b;}.cls-220{fill:#bebca5;}.cls-221{fill:#e4d6ac;}.cls-222{fill:#dddf82;}.cls-223{fill:#c6b486;}.cls-224{fill:#dfdd8b;}.cls-225{fill:#edf0be;}.cls-226{fill:#fef9d4;}.cls-227{fill:#d4c694;}.cls-228{fill:#fff1bd;}.cls-229{fill:#d2d278;}.cls-230{fill:#292113;}.cls-231{fill:#736655;}.cls-232{fill:#17150e;}.cls-233{fill:#978d76;}.cls-234{fill:#5b533e;}.cls-235{fill:#c9a54a;}.cls-236{fill:#baa34a;}.cls-237{fill:#635639;}.cls-238{fill:#51462a;}.cls-239{fill:#3d3421;}.cls-240{fill:#777237;}.cls-241{fill:#e6cf85;}.cls-242{fill:#f2edbb;}.cls-243{fill:#a88a40;}.cls-244{fill:#aa9b3b;}.cls-245{fill:#c1b460;}.cls-246{fill:#b69c55;}</style></defs><title>Artboard 1</title><polygon class="cls-1" points="180.31 851.61 577.45 970.68 820.66 899.84 365.39 781.1 180.31 851.61"/><polygon class="cls-2" points="226.29 574.61 258.54 599.99 258.54 538.25 226.29 574.61"/><polygon class="cls-3" points="529.17 79.98 599.84 66.95 580.2 118.4 529.17 79.98"/><polygon class="cls-4" points="330.23 205.07 244.59 266.25 311.01 313.44 330.23 205.07"/><polygon class="cls-5" points="386.17 231.29 311.01 313.44 330.23 205.07 386.17 231.29"/><polygon class="cls-6" points="423.18 190.43 330.23 205.07 386.17 231.29 423.18 190.43"/><polygon class="cls-7" points="529.17 202.44 423.18 190.43 467.09 237.77 529.17 202.44"/><polygon class="cls-8" points="467.09 237.77 386.17 231.29 423.18 190.43 467.09 237.77"/><polygon class="cls-9" points="417.01 322.15 467.09 237.77 386.17 231.29 417.01 322.15"/><polygon class="cls-10" points="484.93 329.01 543.9 242.24 467.09 237.77 484.93 329.01"/><polygon class="cls-11" points="417.01 322.15 484.93 329.01 467.09 237.77 417.01 322.15"/><polygon class="cls-12" points="311.01 313.44 417.01 322.15 386.17 231.29 311.01 313.44"/><polygon class="cls-13" points="220.12 370.17 311.01 313.44 244.59 266.25 220.12 370.17"/><polygon class="cls-14" points="210.29 489.54 265.56 435.34 220.12 370.17 210.29 489.54"/><polygon class="cls-15" points="311.01 313.44 265.56 435.34 220.12 370.17 311.01 313.44"/><polygon class="cls-16" points="334.69 405.84 417.01 322.15 311.01 313.44 334.69 405.84"/><polygon class="cls-17" points="265.56 435.34 334.69 405.84 311.01 313.44 265.56 435.34"/><polygon class="cls-18" points="441.71 423.68 417.01 322.15 334.69 405.84 441.71 423.68"/><polygon class="cls-19" points="484.93 329.01 441.71 423.68 417.01 322.15 484.93 329.01"/><polygon class="cls-20" points="566.82 260.75 543.9 242.24 484.93 329.01 566.82 260.75"/><polygon class="cls-21" points="545.98 335.87 566.82 260.75 484.93 329.01 545.98 335.87"/><polygon class="cls-22" points="595.38 296.08 566.82 260.75 545.98 335.87 595.38 296.08"/><polygon class="cls-23" points="441.71 423.68 545.98 335.87 484.93 329.01 441.71 423.68"/><polygon class="cls-24" points="529.17 438.09 545.98 335.87 441.71 423.68 529.17 438.09"/><polygon class="cls-25" points="622.82 418.88 545.98 335.87 529.17 438.09 622.82 418.88"/><polygon class="cls-26" points="640.65 307.06 595.38 296.08 545.98 335.87 640.65 307.06"/><polygon class="cls-27" points="670.15 350.96 640.65 307.06 545.98 335.87 670.15 350.96"/><polygon class="cls-28" points="622.82 418.88 670.15 350.96 545.98 335.87 622.82 418.88"/><polygon class="cls-29" points="695.54 307.06 640.65 307.06 670.15 350.96 695.54 307.06"/><polygon class="cls-30" points="742.41 350.96 695.54 307.06 670.15 350.96 742.41 350.96"/><polygon class="cls-31" points="770.11 459.14 742.41 350.96 720.23 435.34 770.11 459.14"/><polygon class="cls-32" points="670.15 350.96 720.23 435.34 742.41 350.96 670.15 350.96"/><polygon class="cls-33" points="622.82 418.88 720.23 435.34 670.15 350.96 622.82 418.88"/><polygon class="cls-34" points="226.29 574.61 258.54 538.25 210.29 489.54 226.29 574.61"/><polygon class="cls-35" points="265.56 435.34 258.54 538.25 210.29 489.54 265.56 435.34"/><polygon class="cls-36" points="300.13 527.27 265.56 435.34 258.54 538.25 300.13 527.27"/><polygon class="cls-37" points="334.69 405.84 300.13 527.27 265.56 435.34 334.69 405.84"/><polygon class="cls-38" points="388.2 500.51 334.69 405.84 300.13 527.27 388.2 500.51"/><polygon class="cls-39" points="441.71 423.68 388.2 500.51 334.69 405.84 441.71 423.68"/><polygon class="cls-40" points="462.97 543.05 441.71 423.68 388.2 500.51 462.97 543.05"/><polygon class="cls-41" points="383.39 556.77 388.2 500.51 300.13 527.27 383.39 556.77"/><polygon class="cls-42" points="462.97 543.05 383.39 556.77 388.2 500.51 462.97 543.05"/><polygon class="cls-43" points="383.39 593.81 383.39 556.77 300.13 527.27 383.39 593.81"/><polygon class="cls-44" points="462.97 543.05 383.39 593.81 383.39 556.77 462.97 543.05"/><polygon class="cls-45" points="529.17 520.41 441.71 423.68 462.97 543.05 529.17 520.41"/><polygon class="cls-46" points="545.98 571.17 529.17 520.41 462.97 543.05 545.98 571.17"/><polygon class="cls-47" points="472.35 596.96 462.97 543.05 383.39 593.81 472.35 596.96"/><polygon class="cls-48" points="509.62 625.37 462.97 543.05 477.38 621.25 509.62 625.37"/><polygon class="cls-49" points="545.98 571.17 509.62 625.37 462.97 543.05 545.98 571.17"/><polygon class="cls-50" points="600.87 560.54 529.17 520.41 545.98 571.17 600.87 560.54"/><polygon class="cls-51" points="529.17 438.09 529.17 520.41 622.82 418.88 529.17 438.09"/><polygon class="cls-52" points="600.87 560.54 622.82 418.88 529.17 520.41 600.87 560.54"/><polygon class="cls-53" points="583.03 599.99 600.87 560.54 545.98 571.17 583.03 599.99"/><polygon class="cls-54" points="554.22 641.15 583.03 599.99 545.98 571.17 554.22 641.15"/><polygon class="cls-55" points="509.62 625.37 554.22 641.15 545.98 571.17 509.62 625.37"/><polygon class="cls-56" points="686.62 556.77 600.87 560.54 583.03 599.99 686.62 556.77"/><polygon class="cls-57" points="649.4 589.18 686.62 556.77 583.03 599.99 649.4 589.18"/><polygon class="cls-58" points="622.82 418.88 686.62 556.77 600.87 560.54 622.82 418.88"/><polygon class="cls-59" points="720.23 435.34 686.62 556.77 622.82 418.88 720.23 435.34"/><polygon class="cls-60" points="749.05 525.21 720.23 435.34 686.62 556.77 749.05 525.21"/><polygon class="cls-61" points="770.11 459.14 749.05 525.21 720.23 435.34 770.11 459.14"/><polygon class="cls-62" points="706.51 588.33 749.05 525.21 686.62 556.77 706.51 588.33"/><polygon class="cls-63" points="737.38 586.61 749.05 525.21 706.51 588.33 737.38 586.61"/><polygon class="cls-64" points="664.66 701.52 706.51 588.33 657.8 634.98 664.66 701.52"/><polygon class="cls-65" points="686.62 556.77 657.8 634.98 706.51 588.33 686.62 556.77"/><polygon class="cls-66" points="649.4 589.18 657.8 634.98 686.62 556.77 649.4 589.18"/><polygon class="cls-67" points="718.52 668.59 737.38 586.61 706.51 588.33 718.52 668.59"/><polygon class="cls-68" points="314.11 580.26 300.13 527.27 291.47 588.33 314.11 580.26"/><polygon class="cls-69" points="258.54 538.25 258.54 599.99 291.47 588.33 258.54 538.25"/><polygon class="cls-70" points="300.13 527.27 258.54 538.25 291.47 588.33 300.13 527.27"/><polygon class="cls-71" points="295.58 644.92 314.11 580.26 291.47 588.33 295.58 644.92"/><polygon class="cls-72" points="258.54 599.99 291.47 588.33 268.83 634.98 258.54 599.99"/><polygon class="cls-73" points="295.58 644.92 291.47 588.33 268.83 634.98 295.58 644.92"/><polygon class="cls-74" points="226.29 574.61 234.95 619.2 258.54 599.99 226.29 574.61"/><polygon class="cls-75" points="268.83 634.98 258.54 599.99 234.95 619.2 268.83 634.98"/><polygon class="cls-76" points="251.89 652.81 234.95 619.2 268.83 634.98 251.89 652.81"/><polygon class="cls-77" points="275 674.76 268.83 634.98 251.89 652.81 275 674.76"/><polygon class="cls-78" points="295.58 644.92 275 674.76 268.83 634.98 295.58 644.92"/><polygon class="cls-79" points="251.89 652.81 234.95 619.2 239.33 696.72 251.89 652.81"/><polygon class="cls-80" points="275 674.76 239.33 696.72 251.89 652.81 275 674.76"/><polygon class="cls-81" points="295.58 644.92 287.41 711.81 275 674.76 295.58 644.92"/><polygon class="cls-82" points="263.45 742.68 239.33 696.72 275 674.76 263.45 742.68"/><polygon class="cls-83" points="287.41 711.81 263.45 742.68 275 674.76 287.41 711.81"/><polygon class="cls-84" points="248.25 781.1 263.45 742.68 239.33 696.72 248.25 781.1"/><polygon class="cls-85" points="295.58 784.53 287.41 711.81 263.45 742.68 295.58 784.53"/><polygon class="cls-86" points="248.25 781.1 268.83 814.72 263.45 742.68 248.25 781.1"/><polygon class="cls-87" points="295.58 784.53 268.83 814.72 263.45 742.68 295.58 784.53"/><polygon class="cls-88" points="263.45 847.64 268.83 814.72 248.25 781.1 263.45 847.64"/><polygon class="cls-89" points="295.58 784.53 311.01 836.67 268.83 814.72 295.58 784.53"/><polygon class="cls-90" points="383.39 593.81 334.69 599.99 346.48 564.32 383.39 593.81"/><polygon class="cls-91" points="383.39 631.55 411.19 594.8 383.39 593.81 383.39 631.55"/><polygon class="cls-92" points="351.15 631.55 383.39 593.81 383.39 631.55 351.15 631.55"/><polygon class="cls-93" points="334.69 599.99 351.15 631.55 383.39 593.81 334.69 599.99"/><polygon class="cls-94" points="334.69 680.94 351.15 631.55 334.69 599.99 334.69 680.94"/><polygon class="cls-95" points="383.39 631.55 388.2 661.73 411.19 594.8 383.39 631.55"/><polygon class="cls-96" points="373.1 696.72 383.39 631.55 351.15 631.55 373.1 696.72"/><polygon class="cls-97" points="334.69 680.94 373.1 696.72 351.15 631.55 334.69 680.94"/><polygon class="cls-98" points="388.2 661.73 373.1 696.72 383.39 631.55 388.2 661.73"/><polygon class="cls-99" points="388.2 762.58 388.2 661.73 373.1 696.72 388.2 762.58"/><polygon class="cls-100" points="334.69 680.94 365.39 781.1 373.1 696.72 334.69 680.94"/><polygon class="cls-101" points="330.23 770.12 365.39 781.1 334.69 680.94 330.23 770.12"/><polygon class="cls-102" points="388.2 762.58 365.39 781.1 373.1 696.72 388.2 762.58"/><polygon class="cls-103" points="509.62 625.37 518.54 701.52 477.38 621.25 509.62 625.37"/><polygon class="cls-104" points="554.22 641.15 583.03 703.58 568.14 621.25 554.22 641.15"/><polygon class="cls-105" points="534.32 664.13 554.22 641.15 509.62 625.37 534.32 664.13"/><polygon class="cls-106" points="518.54 701.52 534.32 664.13 509.62 625.37 518.54 701.52"/><polygon class="cls-107" points="554.22 641.15 583.03 703.58 534.32 664.13 554.22 641.15"/><polygon class="cls-108" points="545.98 696.72 534.32 664.13 518.54 701.52 545.98 696.72"/><polygon class="cls-109" points="583.03 703.58 545.98 696.72 534.32 664.13 583.03 703.58"/><polygon class="cls-110" points="545.98 696.72 526.09 740.62 518.54 701.52 545.98 696.72"/><polygon class="cls-111" points="561.76 732.74 583.03 703.58 545.98 696.72 561.76 732.74"/><polygon class="cls-112" points="593.02 748.17 583.03 703.58 561.76 732.74 593.02 748.17"/><polygon class="cls-113" points="526.09 740.62 561.76 732.74 545.98 696.72 526.09 740.62"/><polygon class="cls-114" points="565.02 774.92 561.76 732.74 526.09 740.62 565.02 774.92"/><polygon class="cls-115" points="593.02 748.17 565.02 774.92 561.76 732.74 593.02 748.17"/><polygon class="cls-116" points="526.09 740.62 526.09 788.65 565.02 774.92 526.09 740.62"/><polygon class="cls-117" points="593.02 748.17 585.55 811.46 565.02 774.92 593.02 748.17"/><polygon class="cls-118" points="526.09 788.65 536.58 821.92 565.02 774.92 526.09 788.65"/><polygon class="cls-119" points="566.07 826.21 585.55 811.46 565.02 774.92 566.07 826.21"/><polygon class="cls-120" points="536.58 821.92 566.07 826.21 565.02 774.92 536.58 821.92"/><polygon class="cls-121" points="699.65 689.86 718.52 668.59 706.51 588.33 699.65 689.86"/><polygon class="cls-122" points="664.66 701.52 699.65 689.86 706.51 588.33 664.66 701.52"/><polygon class="cls-123" points="675.3 753.83 699.65 689.86 664.66 701.52 675.3 753.83"/><polygon class="cls-124" points="718.52 668.59 727.78 714.73 699.65 689.86 718.52 668.59"/><polygon class="cls-125" points="706.51 738.91 727.78 714.73 699.65 689.86 706.51 738.91"/><polygon class="cls-126" points="706.51 738.91 699.65 689.86 675.3 753.83 706.51 738.91"/><polygon class="cls-127" points="727.78 714.73 731.9 762.58 706.51 738.91 727.78 714.73"/><polygon class="cls-128" points="675.3 753.83 717.83 771.5 706.51 738.91 675.3 753.83"/><polygon class="cls-129" points="731.9 762.58 717.83 771.5 706.51 738.91 731.9 762.58"/><polygon class="cls-130" points="675.3 753.83 686.62 791.39 717.83 771.5 675.3 753.83"/><polygon class="cls-131" points="706.51 799.97 717.83 771.5 686.62 791.39 706.51 799.97"/><polygon class="cls-132" points="731.9 762.58 731.9 797.91 717.83 771.5 731.9 762.58"/><polygon class="cls-133" points="706.51 799.97 731.9 797.91 717.83 771.5 706.51 799.97"/><polygon class="cls-134" points="690.91 852.45 706.51 799.97 686.62 791.39 690.91 852.45"/><polygon class="cls-135" points="717.83 825 731.9 797.91 706.51 799.97 717.83 825"/><polygon class="cls-136" points="731.9 844.21 731.9 797.91 717.83 825 731.9 844.21"/><polygon class="cls-137" points="690.91 852.45 717.83 825 706.51 799.97 690.91 852.45"/><polygon class="cls-138" points="720.87 884.61 731.9 844.21 717.83 825 720.87 884.61"/><polygon class="cls-139" points="690.91 852.45 720.87 884.61 717.83 825 690.91 852.45"/><polygon class="cls-140" points="695.54 307.06 730.35 241.88 742.41 350.96 695.54 307.06"/><polygon class="cls-141" points="683.19 263.15 695.54 307.06 730.35 241.88 683.19 263.15"/><polygon class="cls-142" points="640.65 307.06 695.54 307.06 683.19 263.15 640.65 307.06"/><polygon class="cls-143" points="643.74 266.25 640.65 307.06 683.19 263.15 643.74 266.25"/><polygon class="cls-144" points="595.38 296.08 643.74 266.25 640.65 307.06 595.38 296.08"/><polygon class="cls-145" points="652.32 237.77 643.74 266.25 683.19 263.15 652.32 237.77"/><polygon class="cls-146" points="695.54 205.07 683.19 263.15 730.35 241.88 695.54 205.07"/><polygon class="cls-147" points="652.32 237.77 695.54 205.07 683.19 263.15 652.32 237.77"/><polygon class="cls-148" points="727.78 178.77 730.35 241.88 695.54 205.07 727.78 178.77"/><polygon class="cls-149" points="543.9 242.24 565.02 246 566.82 260.75 543.9 242.24"/><polygon class="cls-150" points="595.38 296.08 595.38 263.15 566.82 260.75 595.38 296.08"/><polygon class="cls-151" points="595.38 263.15 652.32 237.77 643.74 266.25 595.38 263.15"/><polygon class="cls-152" points="595.38 296.08 643.74 266.25 595.38 263.15 595.38 296.08"/><polygon class="cls-153" points="565.02 246 595.38 263.15 589.89 246 565.02 246"/><polygon class="cls-154" points="566.82 260.75 595.38 263.15 565.02 246 566.82 260.75"/><polygon class="cls-155" points="537.75 224.05 543.9 242.24 565.02 246 537.75 224.05"/><polygon class="cls-156" points="529.17 202.44 537.75 224.05 543.9 242.24 467.09 237.77 529.17 202.44"/><polygon class="cls-157" points="556.64 227.7 557.97 240.32 537.75 224.05 556.64 227.7"/><polygon class="cls-158" points="580.2 220.3 565.02 246 556.64 227.7 580.2 220.3"/><polygon class="cls-159" points="589.89 246 580.2 220.3 565.02 246 589.89 246"/><polygon class="cls-160" points="553.44 212.45 537.75 224.05 556.64 227.7 553.44 212.45"/><polygon class="cls-161" points="580.2 220.3 553.44 212.45 556.64 227.7 580.2 220.3"/><polygon class="cls-162" points="529.17 202.44 529.17 202.44 537.75 224.05 553.44 212.45 529.17 202.44"/><polygon class="cls-163" points="584.4 197.29 580.2 220.3 553.44 212.45 584.4 197.29"/><polygon class="cls-164" points="605.32 228.16 589.89 246 580.2 220.3 605.32 228.16"/><polygon class="cls-165" points="595.38 263.15 616.64 237.77 589.89 246 595.38 263.15"/><polygon class="cls-166" points="652.32 237.77 616.64 237.77 595.38 263.15 652.32 237.77"/><polygon class="cls-167" points="652.32 205.07 652.32 237.77 616.64 237.77 652.32 205.07"/><polygon class="cls-168" points="695.54 205.07 652.32 205.07 652.32 237.77 695.54 205.07"/><polygon class="cls-169" points="657.12 175.34 652.32 205.07 695.54 205.07 657.12 175.34"/><polygon class="cls-170" points="683.19 156.81 695.54 205.07 657.12 175.34 683.19 156.81"/><polygon class="cls-171" points="727.78 178.77 683.19 156.81 695.54 205.07 727.78 178.77"/><polygon class="cls-172" points="605.32 228.16 616.64 237.77 589.89 246 605.32 228.16"/><polygon class="cls-173" points="619.56 207.24 616.64 237.77 605.32 228.16 619.56 207.24"/><polygon class="cls-174" points="652.32 205.07 619.56 207.24 616.64 237.77 652.32 205.07"/><polygon class="cls-175" points="657.12 175.34 619.56 207.24 652.32 205.07 657.12 175.34"/><polygon class="cls-176" points="584.4 197.29 598.12 210.86 580.2 220.3 584.4 197.29"/><polygon class="cls-177" points="605.32 228.16 598.12 210.86 619.56 207.24 605.32 228.16"/><polygon class="cls-178" points="584.4 197.29 619.56 207.24 598.12 210.86 584.4 197.29"/><polygon class="cls-179" points="529.17 202.44 570.68 144.47 553.44 212.45 529.17 202.44"/><polygon class="cls-180" points="584.4 197.29 570.68 144.47 553.44 212.45 584.4 197.29"/><polygon class="cls-181" points="601.98 167.11 584.4 197.29 619.56 207.24 601.98 167.11"/><polygon class="cls-182" points="628.99 156.81 619.56 207.24 657.12 175.34 628.99 156.81"/><polygon class="cls-183" points="601.98 167.11 628.99 156.81 619.56 207.24 601.98 167.11"/><polygon class="cls-184" points="683.19 156.81 628.99 156.81 657.12 175.34 683.19 156.81"/><polygon class="cls-185" points="700.34 118.4 683.19 156.81 727.78 178.77 700.34 118.4"/><polygon class="cls-186" points="726.41 130.06 727.78 178.77 700.34 118.4 726.41 130.06"/><polygon class="cls-187" points="601.98 167.11 570.68 144.47 584.4 197.29 601.98 167.11"/><polygon class="cls-188" points="531.58 126.63 527.12 170.88 570.68 144.47 531.58 126.63"/><polygon class="cls-189" points="529.17 202.44 527.12 170.88 570.68 144.47 529.17 202.44"/><polygon class="cls-190" points="580.2 118.4 570.68 144.47 529.17 79.98 580.2 118.4"/><polygon class="cls-191" points="628.99 109.48 570.68 144.47 580.2 118.4 628.99 109.48"/><polygon class="cls-192" points="601.98 167.11 570.68 144.47 628.99 109.48 601.98 167.11"/><polygon class="cls-193" points="628.99 156.81 628.99 109.48 601.98 167.11 628.99 156.81"/><polygon class="cls-194" points="663.47 126.97 683.19 156.81 628.99 156.81 663.47 126.97"/><polygon class="cls-195" points="628.99 109.48 663.47 126.97 628.99 156.81 628.99 109.48"/><polygon class="cls-196" points="700.34 118.4 683.19 156.81 663.47 126.97 700.34 118.4"/><polygon class="cls-197" points="529.17 79.98 523.25 106.73 570.68 144.47 529.17 79.98"/><polygon class="cls-198" points="531.58 126.63 523.25 106.73 570.68 144.47 531.58 126.63"/><polygon class="cls-199" points="692.11 99.88 663.47 126.97 628.99 109.48 692.11 99.88"/><polygon class="cls-200" points="700.34 118.4 692.11 99.88 663.47 126.97 700.34 118.4"/><polygon class="cls-201" points="529.17 79.98 456.8 103.31 523.25 106.73 529.17 79.98"/><polygon class="cls-202" points="580.2 118.4 599.84 66.95 628.99 109.48 580.2 118.4"/><polygon class="cls-203" points="660.55 71.75 628.99 109.48 599.84 66.95 660.55 71.75"/><polygon class="cls-204" points="573.42 48.42 529.17 79.98 599.84 66.95 573.42 48.42"/><polygon class="cls-205" points="638.34 37.45 599.84 66.95 573.42 48.42 638.34 37.45"/><polygon class="cls-206" points="660.55 71.75 599.84 66.95 638.34 37.45 660.55 71.75"/><polygon class="cls-207" points="705.48 64.2 660.55 71.75 638.34 37.45 705.48 64.2"/><polygon class="cls-208" points="692.11 99.88 705.48 64.2 660.55 71.75 692.11 99.88"/><polygon class="cls-209" points="628.99 109.48 692.11 99.88 660.55 71.75 628.99 109.48"/><polygon class="cls-210" points="749.05 57.17 705.48 64.2 692.11 99.88 749.05 57.17"/><polygon class="cls-211" points="726.41 130.06 777.86 125.6 700.34 118.4 726.41 130.06"/><polygon class="cls-212" points="692.11 99.88 700.34 118.4 777.86 125.6 692.11 99.88"/><polygon class="cls-213" points="809.42 93.36 777.86 125.6 692.11 99.88 809.42 93.36"/><polygon class="cls-214" points="749.05 57.17 809.42 93.36 692.11 99.88 749.05 57.17"/><polygon class="cls-215" points="559.02 58.7 464.69 34.36 529.17 79.98 559.02 58.7"/><polygon class="cls-216" points="396.76 48.42 529.17 79.98 464.69 34.36 396.76 48.42"/><polygon class="cls-217" points="456.8 103.31 529.17 79.98 396.76 48.42 456.8 103.31"/><polygon class="cls-218" points="464.69 34.36 412.65 35.86 396.76 48.42 464.69 34.36"/><polygon class="cls-219" points="456.8 103.31 417.01 82.04 396.76 48.42 456.8 103.31"/><polygon class="cls-220" points="580.2 220.3 605.32 228.16 598.12 210.86 580.2 220.3"/><polygon class="cls-221" points="441.71 423.68 529.17 520.41 529.17 438.09 441.71 423.68"/><polygon class="cls-222" points="417.01 82.04 433.47 99.88 456.8 103.31 417.01 82.04"/><polygon class="cls-223" points="456.8 103.31 482.18 116.34 523.25 106.73 456.8 103.31"/><polygon class="cls-224" points="456.8 103.31 482.18 116.34 433.47 99.88 456.8 103.31"/><polygon class="cls-225" points="412.65 35.86 389.91 43.62 396.76 48.42 412.65 35.86"/><polygon class="cls-225" points="417.01 82.04 396.76 48.42 389.91 43.62 417.01 82.04"/><polygon class="cls-226" points="464.69 34.36 433.47 29.21 412.65 35.86 464.69 34.36"/><polygon class="cls-227" points="389.91 43.62 391.63 60.77 417.01 82.04 389.91 43.62"/><polygon class="cls-228" points="749.05 57.17 787.81 71.75 809.42 93.36 749.05 57.17"/><polygon class="cls-229" points="809.42 93.36 795.35 113.42 777.86 125.6 809.42 93.36"/><polygon class="cls-230" points="656.09 110.85 672.12 118.78 682.36 109.09 666.64 99.88 656.09 110.85"/><path class="cls-231" d="M662.61,105.88c.51,0,8.06,2.4,8.06,2.4v-5Z"/><polygon class="cls-232" points="523.25 106.73 523.25 114.63 526.55 114.63 523.25 106.73"/><polygon class="cls-233" points="531.58 126.63 523.25 114.63 526.55 114.63 531.58 126.63"/><polygon class="cls-234" points="556.64 227.7 557.97 240.32 565.02 246 556.64 227.7"/><polygon class="cls-235" points="268.83 814.72 289.92 848.67 263.45 847.64 268.83 814.72"/><polygon class="cls-236" points="311.01 836.67 289.92 848.67 268.83 814.72 311.01 836.67"/><polygon class="cls-237" points="263.45 847.64 279.51 869.87 289.92 848.67 263.45 847.64"/><polygon class="cls-238" points="311.01 836.67 311.01 864.74 289.92 848.67 311.01 836.67"/><polygon class="cls-238" points="279.51 869.87 292.48 872.08 289.92 848.67 279.51 869.87"/><polygon class="cls-237" points="311.01 864.74 299.91 867.97 289.92 848.67 311.01 864.74"/><polygon class="cls-239" points="292.48 872.08 299.91 867.97 289.92 848.67 292.48 872.08"/><polygon class="cls-237" points="279.51 869.87 265.57 859.99 263.45 847.64 279.51 869.87"/><polygon class="cls-237" points="344.33 808.9 363.07 828.92 370.72 806.59 344.33 808.9"/><polygon class="cls-238" points="388.41 797.86 393.66 819.87 370.72 806.59 388.41 797.86"/><polygon class="cls-238" points="363.07 828.92 375.4 827.33 370.72 806.59 363.07 828.92"/><polygon class="cls-237" points="393.66 819.87 383.06 824.48 370.72 806.59 393.66 819.87"/><polygon class="cls-239" points="375.4 827.33 383.06 824.48 370.72 806.59 375.4 827.33"/><polygon class="cls-237" points="363.07 828.92 347.99 820.88 344.33 808.9 363.07 828.92"/><polygon class="cls-100" points="330.23 770.12 336 798.65 365.39 781.1 330.23 770.12"/><polygon class="cls-99" points="388.2 762.58 385.78 779.41 365.39 781.1 388.2 762.58"/><polygon class="cls-100" points="385.78 779.41 388.41 797.86 365.39 781.1 385.78 779.41"/><polygon class="cls-240" points="336 798.65 344.33 808.9 365.39 781.1 336 798.65"/><polygon class="cls-240" points="370.72 806.59 365.39 781.1 388.41 797.86 370.72 806.59"/><polygon class="cls-100" points="344.33 808.9 370.72 806.59 365.39 781.1 344.33 808.9"/><polygon class="cls-241" points="690.91 852.45 690.91 880.24 720.87 884.61 690.91 852.45"/><polygon class="cls-242" points="731.9 844.21 742.41 877 720.87 884.61 731.9 844.21"/><polygon class="cls-237" points="690.91 880.24 703.43 904.66 720.87 884.61 690.91 880.24"/><polygon class="cls-238" points="742.41 877 742.99 899.99 720.87 884.61 742.41 877"/><polygon class="cls-238" points="703.43 904.66 718.05 907.77 720.87 884.61 703.43 904.66"/><polygon class="cls-237" points="742.99 899.99 734.94 904.66 720.87 884.61 742.99 899.99"/><polygon class="cls-239" points="718.05 907.77 725.57 904.66 720.87 884.61 718.05 907.77"/><polygon class="cls-238" points="725.57 904.66 734.94 904.66 720.87 884.61 725.57 904.66"/><polygon class="cls-238" points="703.43 904.66 696.34 899.99 690.91 880.24 703.43 904.66"/><polygon class="cls-237" points="539.03 899.25 551.45 925.56 568.54 902.28 539.03 899.25"/><polygon class="cls-238" points="591.01 893.64 591.01 920.9 568.54 902.28 591.01 893.64"/><polygon class="cls-238" points="551.45 925.56 566.07 928.68 568.54 902.28 551.45 925.56"/><polygon class="cls-237" points="591.01 920.9 582.96 925.56 568.54 902.28 591.01 920.9"/><polygon class="cls-239" points="566.07 928.68 573.6 925.56 568.54 902.28 566.07 928.68"/><polygon class="cls-238" points="573.6 925.56 582.96 925.56 568.54 902.28 573.6 925.56"/><polygon class="cls-238" points="551.45 925.56 544.37 920.9 539.03 899.25 551.45 925.56"/><polygon class="cls-243" points="582.4 860.38 585.55 811.46 566.07 826.21 582.4 860.38"/><polygon class="cls-244" points="536.58 821.92 541.24 860.38 566.07 826.21 536.58 821.92"/><polygon class="cls-243" points="541.24 860.38 539.03 899.25 564.5 877 541.24 860.38"/><polygon class="cls-245" points="566.07 826.21 564.5 877 541.24 860.38 566.07 826.21"/><polygon class="cls-245" points="582.4 860.38 591.01 893.64 564.5 877 582.4 860.38"/><polygon class="cls-246" points="566.07 826.21 582.4 860.38 564.5 877 566.07 826.21"/><polygon class="cls-246" points="539.03 899.25 568.54 902.28 564.5 877 539.03 899.25"/><polygon class="cls-243" points="591.01 893.64 568.54 902.28 564.5 877 591.01 893.64"/></svg>