<?xml version="1.0" encoding="utf-8"?>
<!-- Generator: Adobe Illustrator 22.0.1, SVG Export Plug-In . SVG Version: 6.00 Build 0)  -->
<svg version="1.1" id="Layer_1" xmlns="http://www.w3.org/2000/svg" xmlns:xlink="http://www.w3.org/1999/xlink" x="0px" y="0px"
	 viewBox="0 0 1130 780" style="enable-background:new 0 0 1130 780;" xml:space="preserve">
<style type="text/css">
	.st0{opacity:0.51;fill:#373636;}
	.st1{fill:#3D4143;}
	.st2{fill:#211F17;}
	.st3{fill:#DDEAEA;}
	.st4{fill:#BAC2BC;}
	.st5{fill:#BFC9C4;}
	.st6{fill:#BCC6C0;}
	.st7{fill:#D3DDD7;}
	.st8{fill:#CAD3D0;}
	.st9{fill:#B5BFBD;}
	.st10{fill:#3B4248;}
	.st11{fill:#151615;}
	.st12{fill:#262820;}
	.st13{fill:#242117;}
	.st14{fill:#312D24;}
	.st15{fill:#403725;}
	.st16{fill:#869087;}
	.st17{fill:#858580;}
	.st18{fill:#BBC1C3;}
	.st19{fill:#AAB2AB;}
	.st20{fill:#B6BDB5;}
	.st21{fill:#5B584D;}
	.st22{fill:#2C271F;}
	.st23{fill:#413F3B;}
	.st24{fill:#5C5E5F;}
	.st25{fill:#42423D;}
	.st26{fill:#7C8188;}
	.st27{fill:#232629;}
	.st28{fill:#242620;}
	.st29{fill:#393E43;}
	.st30{fill:#43474E;}
	.st31{fill:#4D5258;}
	.st32{fill:#21221F;}
	.st33{fill:#171819;}
	.st34{fill:#606557;}
	.st35{fill:#1A1A19;}
	.st36{fill:#67705B;}
	.st37{fill:#31383F;}
	.st38{fill:#D2DFDF;}
	.st39{fill:#CED6DC;}
	.st40{fill:#57534B;}
	.st41{fill:#33352E;}
	.st42{fill:#A6B5B6;}
	.st43{fill:#ABB5B0;}
	.st44{fill:#C5CCCA;}
	.st45{fill:#D6DEDC;}
	.st46{fill:#C5CBCB;}
	.st47{fill:#D2DCDC;}
	.st48{fill:#929B92;}
	.st49{fill:#99A19D;}
	.st50{fill:#C5CBC4;}
	.st51{fill:#AAAFA9;}
	.st52{fill:#9FA69F;}
	.st53{fill:#7B7D71;}
	.st54{fill:#C9D1CE;}
	.st55{fill:#E6E7E5;}
	.st56{fill:#8F998A;}
	.st57{fill:#788282;}
	.st58{fill:#111210;}
	.st59{fill:#2B2723;}
	.st60{fill:#171919;}
	.st61{fill:#1B1917;}
	.st62{fill:#473A29;}
	.st63{fill:#3B2C1C;}
	.st64{fill:#888F7C;}
	.st65{fill:#5F5E58;}
	.st66{fill:#6A7261;}
	.st67{fill:#A8AFA7;}
	.st68{fill:#A1A698;}
	.st69{fill:#6A7264;}
	.st70{fill:#1F2320;}
	.st71{fill:#42392D;}
	.st72{fill:#342D1C;}
	.st73{fill:#181814;}
	.st74{fill:#2F2F28;}
	.st75{fill:#1E1E1C;}
	.st76{fill:#3C3D39;}
	.st77{fill:#1C201E;}
	.st78{fill:#B3B9B6;}
	.st79{fill:#715A30;}
	.st80{fill:#8B9F9E;}
	.st81{fill:#C4C8CE;}
	.st82{fill:#DADFE2;}
	.st83{fill:#BBC0C6;}
	.st84{fill:#C4CECE;}
	.st85{fill:#828B88;}
	.st86{fill:#4F574A;}
	.st87{fill:#616467;}
	.st88{fill:#3F4449;}
	.st89{fill:#1D1C17;}
	.st90{fill:#3B3929;}
	.st91{fill:#788276;}
	.st92{fill:#A6A8A4;}
	.st93{fill:#939995;}
	.st94{fill:#959990;}
	.st95{fill:#6A6C58;}
	.st96{fill:#8B9089;}
	.st97{fill:#61655A;}
	.st98{fill:#8C8D8C;}
	.st99{fill:#737373;}
	.st100{fill:#070707;}
</style>
<polygon class="st0" points="990.7,765.4 339.8,765.4 157.7,666.9 834.5,668.2 "/>
<polygon class="st1" points="892.7,302.7 947.1,479.9 990.7,440.5 903.4,302.7 "/>
<polygon class="st2" points="892.7,302.7 947.1,479.9 870.1,456.5 "/>
<polygon class="st3" points="990.7,440.5 1122.2,522.7 1059.2,515.9 "/>
<polygon class="st4" points="1059.2,515.9 1089.2,529.1 1040,529.1 975.2,454.5 "/>
<polygon class="st5" points="962.5,466 1040,529.1 1055,537.4 1013.4,538.3 "/>
<polygon class="st6" points="947.1,479.9 1025.8,549.1 980.2,531 "/>
<polygon class="st7" points="990.7,440.5 975.2,454.5 1059.2,515.9 "/>
<polygon class="st8" points="975.2,454.5 962.5,466 1040,529.1 "/>
<polygon class="st9" points="962.5,466 947.1,479.9 1013.4,538.3 "/>
<polygon class="st10" points="855.1,253.8 693.6,278.4 586.5,212.6 717.3,207.7 785.9,224.9 "/>
<polygon class="st11" points="811.1,338.1 811.1,504.8 870.8,454.1 "/>
<polygon class="st12" points="811.1,338.1 738.2,460.5 811.1,504.8 "/>
<polygon class="st13" points="870.8,454.1 843.4,547.4 811.1,504.8 "/>
<polygon class="st14" points="738.2,460.5 790.8,560 811.1,504.8 "/>
<polygon class="st15" points="811.1,504.8 848,603.3 790.8,560 "/>
<polygon class="st13" points="811.1,504.8 889.8,608.5 883.5,634 848,603.3 "/>
<polygon class="st16" points="790.8,560 832.3,611 848,603.3 "/>
<polygon class="st17" points="883.5,634 832.3,611 848,603.3 "/>
<polygon class="st18" points="832.3,611 865.2,673.4 883.5,634 "/>
<polygon class="st19" points="889.8,608.5 899.1,689.7 872.6,657.4 883.5,634 "/>
<polygon class="st20" points="872.6,657.4 899.1,689.7 900.9,724.8 "/>
<polygon class="st21" points="811.1,338.1 738.2,460.5 684.1,399.3 "/>
<polygon class="st22" points="892.7,302.7 870.1,456.5 811.1,338.1 "/>
<polygon class="st23" points="892.7,302.7 855.1,253.8 811.1,338.1 "/>
<polygon class="st24" points="855.1,253.8 811.1,338.1 693.6,278.4 "/>
<polygon class="st25" points="811.1,338.1 684.1,399.3 693.6,278.4 "/>
<polygon class="st26" points="855.1,253.8 903.4,302.7 892.7,302.7 "/>
<polygon class="st27" points="693.6,278.4 511.3,331.4 586.5,212.6 "/>
<polygon class="st28" points="693.6,278.4 684.1,399.3 511.3,331.4 "/>
<polygon class="st29" points="586.5,212.6 511.3,331.4 461.6,262.9 "/>
<polygon class="st30" points="586.5,212.6 461.6,262.9 411.2,207.7 "/>
<polygon class="st31" points="511.3,331.4 356.6,354.4 461.6,262.9 "/>
<polygon class="st32" points="511.3,331.4 356.6,354.4 393.5,479.9 "/>
<polygon class="st33" points="684.1,399.3 520.3,396 511.3,331.4 "/>
<polygon class="st34" points="684.1,399.3 540,472.5 520.3,396 "/>
<polygon class="st35" points="511.3,331.4 520.3,396 393.5,479.9 "/>
<polygon class="st36" points="520.3,396 540,472.5 393.5,479.9 "/>
<polygon class="st37" points="411.2,207.7 461.6,262.9 356.6,354.4 "/>
<polygon class="st38" points="411.2,207.7 341,175.2 356.6,354.4 "/>
<polygon class="st39" points="341,175.2 216.4,197.3 203.2,98.1 "/>
<polygon class="st39" points="341,175.2 356.6,354.4 270.1,286.3 "/>
<polygon class="st40" points="341,175.2 270.1,286.3 213.1,262.9 "/>
<polygon class="st41" points="341,175.2 213.1,262.9 216.4,197.3 "/>
<polygon class="st42" points="356.6,354.4 270.1,286.3 244.7,370 "/>
<polygon class="st43" points="393.5,479.9 318.5,421.7 356.6,354.4 "/>
<polygon class="st44" points="356.6,354.4 318.5,421.7 244.7,370 "/>
<polygon class="st45" points="318.5,421.7 244.7,370 300.6,472.5 "/>
<polygon class="st46" points="318.5,421.7 393.5,479.9 361.5,539 "/>
<polygon class="st46" points="318.5,421.7 324.6,539 300.6,472.5 "/>
<polygon class="st47" points="318.5,421.7 361.5,539 324.6,539 "/>
<polygon class="st48" points="393.5,479.9 384.9,633.3 361.5,539 "/>
<polygon class="st49" points="361.5,539 324.6,539 384.9,633.3 "/>
<polygon class="st50" points="324.6,539 368.9,657.1 384.9,633.3 "/>
<polygon class="st51" points="324.6,539 341.9,639.5 368.9,657.1 "/>
<polygon class="st52" points="384.9,633.3 388.9,669.8 368.9,657.1 "/>
<polygon class="st53" points="368.9,657.1 382.1,665.5 365.5,722.1 "/>
<polygon class="st54" points="368.9,657.1 342.3,663.3 342.3,639.5 "/>
<polygon class="st55" points="368.9,657.1 342.3,663.3 347.3,709.8 "/>
<polygon class="st56" points="270.1,286.3 213.1,262.9 244.7,370 "/>
<path class="st57" d="M244.7,370c0,0-47.2-70.1-48.4-72.2c-1.2-2.1,16.8-34.9,16.8-34.9L244.7,370z"/>
<polygon class="st58" points="130.2,14.4 203.2,98.1 211.1,157.9 "/>
<polygon class="st59" points="130.2,14.4 157.3,100.1 211.1,157.9 "/>
<polygon class="st60" points="211.1,157.9 150.7,121.4 157.3,100.1 "/>
<polygon class="st61" points="130.6,14.4 147.3,68.5 132.7,47.2 "/>
<polygon class="st62" points="157.3,100.1 120.4,86.2 150.7,121.4 "/>
<polygon class="st63" points="147.3,68.5 157.3,100.1 130.2,89.9 "/>
<polygon class="st64" points="213.1,262.9 174.5,192.4 216.4,197.3 "/>
<polygon class="st65" points="216.4,197.3 211.1,157.9 150.7,121.4 "/>
<polygon class="st66" points="174.5,192.4 213.1,262.9 196.3,297.8 "/>
<polygon class="st67" points="185.6,161.7 216.4,197.3 174.5,192.4 "/>
<polygon class="st68" points="174.5,192.4 196.3,297.8 140.5,245.1 "/>
<polygon class="st69" points="174.5,192.4 140.5,245.1 96.6,239.6 "/>
<polygon class="st70" points="174.5,192.4 111.8,164.9 185.6,161.7 "/>
<polygon class="st71" points="111.8,164.9 174.5,192.4 101.5,195.7 "/>
<polygon class="st72" points="174.5,192.4 101.5,195.7 128.4,220.3 "/>
<polygon class="st73" points="101.5,195.7 111.8,164.9 72.8,184.2 "/>
<polygon class="st74" points="111.8,164.9 72.8,159.4 72.8,184.2 "/>
<polygon class="st75" points="111.8,164.9 79.8,141.9 72.8,159.4 "/>
<polygon class="st76" points="79.8,141.9 128.2,95.3 111.8,164.9 "/>
<polygon class="st77" points="128.2,95.3 185.6,161.7 111.8,164.9 "/>
<polygon class="st78" points="128.2,95.3 83.9,121.4 79.8,141.9 "/>
<polygon class="st79" points="83.9,121.4 79.8,141.9 72.8,159.4 "/>
<polygon class="st80" points="87.2,161.7 76.5,157.9 76.5,164.9 80.2,169.4 "/>
<polygon class="st81" points="72.8,159.4 72.8,184.2 12.9,201.8 "/>
<polygon class="st82" points="72.8,184.2 30.6,196.6 24,227.7 "/>
<polygon class="st83" points="72.8,184.2 101.5,195.7 24,227.7 "/>
<polygon class="st84" points="101.5,195.7 128.4,220.3 24,227.7 "/>
<polygon class="st85" points="128.4,220.3 24,227.7 52.7,245.1 "/>
<polygon class="st86" points="128.4,220.3 52.7,245.1 96.6,239.6 "/>
<polygon class="st87" points="30.6,196.6 12.9,201.8 27.4,211.7 "/>
<polygon class="st88" points="27.7,210.4 12.9,201.8 6.8,210.4 "/>
<polygon class="st89" points="27.7,210.4 24,227.7 6.8,210.4 "/>
<polygon class="st90" points="947.1,479.9 900.9,483.6 870.1,456.5 "/>
<polygon class="st91" points="947.1,479.9 980.2,531 900.9,483.6 "/>
<polygon class="st92" points="795.4,565.6 809.1,618.6 826,603.3 "/>
<polygon class="st93" points="826,603.3 834.1,614.4 809.1,618.6 "/>
<polygon class="st94" points="809.1,618.6 808.6,649.7 828,629.7 "/>
<polygon class="st95" points="828,629.7 847.5,639.8 834.1,614.4 "/>
<polygon class="st53" points="847.5,639.8 828.3,685.4 828,629.7 "/>
<polygon class="st96" points="828,629.7 828.3,685.4 808.6,649.7 "/>
<polygon class="st97" points="834.1,614.4 828,629.7 809.1,618.6 "/>
<polygon class="st55" points="872.6,657.4 865.2,673.4 879.1,717.6 900.9,724.8 "/>
<polygon class="st55" points="305.5,734.4 317.8,719.7 347.3,709.8 365.5,722.1 345.2,734.9 "/>
<path class="st98" d="M811.1,701.4"/>
<polygon class="st99" points="879.1,717.6 900.9,724.8 881.8,750.2 "/>
<polygon class="st20" points="879.1,717.6 881.8,750.2 839.7,752.7 "/>
<polygon class="st55" points="879.1,717.6 857.9,727.2 839.7,752.7 "/>
<polygon class="st55" points="828.3,685.4 812.8,675 808.6,649.7 "/>
<polygon class="st99" points="812.8,675 828.3,685.4 811.1,696.3 "/>
<polygon class="st20" points="812.8,675 811.1,696.3 777.9,695.4 "/>
<polygon class="st55" points="812.8,675 781.6,685.9 777.9,695.4 "/>
<polygon class="st96" points="368.9,657.1 365.5,722.1 347.3,709.8 "/>
<polygon class="st54" points="365.5,722.1 347.3,709.8 345.2,734.9 "/>
<polygon class="st100" points="79.7,160.5 79.9,162.1 79,163.8 79,161.8 "/>
</svg>
